<svg width="466" height="393" viewBox="0 0 466 393" fill="none" xmlns="http://www.w3.org/2000/svg">
<g clip-path="url(#clip0_52_858)">
<path d="M249.236 55.2006C264.696 43.8138 286.461 39.4487 303.491 48.3319C284.319 56.6319 268.709 71.4259 259.424 90.0966C255.869 97.31 252.668 105.702 245.334 109.036C240.77 111.111 235.384 110.71 230.658 109.035C225.932 107.36 221.728 104.514 217.583 101.699L216.34 101.549C223.717 83.8532 233.777 66.5873 249.236 55.2006Z" fill="#F0F0F0"/>
<path d="M303.354 48.7099C287.453 49.2066 272.113 54.6863 259.514 64.3706C256.764 66.4074 254.354 68.8636 252.371 71.6488C250.528 74.4241 249.464 77.641 249.289 80.9651C249.064 84.0613 249.193 87.2544 248.217 90.242C247.694 91.7639 246.855 93.1585 245.754 94.3344C244.653 95.5102 243.316 96.4407 241.829 97.0649C238.164 98.7162 234.123 98.9563 230.164 99.0541C225.767 99.1627 221.198 99.206 217.2 101.27C216.715 101.52 216.355 100.756 216.838 100.506C223.795 96.9151 231.924 99.2582 239.236 97.1208C242.648 96.1235 245.779 94.0949 247.149 90.7009C248.347 87.7329 248.216 84.4401 248.417 81.3031C248.54 78.0579 249.458 74.8919 251.09 72.0818C252.924 69.205 255.236 66.6603 257.926 64.5567C263.906 59.7245 270.612 55.8599 277.796 53.1046C285.978 49.9146 294.647 48.1436 303.428 47.8684C303.971 47.8516 303.894 48.6932 303.354 48.7099Z" fill="white"/>
<path d="M263.387 61.0143C262.044 58.686 261.575 55.9576 262.064 53.3164C262.553 50.6752 263.967 48.2933 266.055 46.5959C266.478 46.2539 267.031 46.8941 266.607 47.2365C264.66 48.8136 263.343 51.0325 262.893 53.4929C262.443 55.9533 262.89 58.493 264.153 60.6537C264.427 61.1236 263.659 61.4815 263.387 61.0143Z" fill="white"/>
<path d="M249.196 79.3803C254.499 80.8582 260.166 80.2889 265.067 77.7858C265.552 77.5374 265.913 78.3015 265.428 78.5496C260.324 81.1448 254.425 81.7254 248.91 80.1753C248.385 80.0272 248.673 79.233 249.196 79.3803Z" fill="white"/>
<path d="M285.938 51.0338C286.269 52.0426 286.846 52.9536 287.618 53.685C288.39 54.4164 289.331 54.9452 290.358 55.224C290.886 55.3654 290.596 56.1596 290.072 56.0191C288.939 55.7058 287.9 55.1205 287.045 54.3143C286.191 53.5081 285.548 52.5056 285.172 51.3944C285.128 51.2926 285.124 51.1778 285.161 51.0734C285.199 50.969 285.275 50.8827 285.374 50.8322C285.476 50.785 285.592 50.7796 285.698 50.8174C285.803 50.8552 285.89 50.9329 285.938 51.0338Z" fill="white"/>
<path d="M316.993 111.805C316.661 111.726 316.33 111.647 315.993 111.573C311.528 110.534 306.985 109.859 302.411 109.554C302.057 109.525 301.699 109.501 301.346 109.482C290.316 108.864 279.268 110.294 268.762 113.698C264.583 115.056 260.513 116.729 256.589 118.703C251.169 121.43 245.51 124.816 239.675 125.575C239.067 125.662 238.455 125.71 237.841 125.72L216.254 103.073C216.231 102.997 216.202 102.925 216.179 102.849L215.275 101.984C215.471 101.868 215.676 101.752 215.871 101.636C215.984 101.569 216.102 101.506 216.215 101.438C216.292 101.395 216.369 101.351 216.436 101.308C216.461 101.293 216.487 101.279 216.507 101.269C216.574 101.226 216.641 101.192 216.703 101.153C217.847 100.502 218.998 99.8568 220.155 99.2189C220.16 99.214 220.16 99.214 220.17 99.2141C229.002 94.3759 238.316 90.2303 247.966 87.6261C248.256 87.5479 248.551 87.4645 248.851 87.3966C253.207 86.2468 257.65 85.4539 262.136 85.0259C264.593 84.7994 267.06 84.6971 269.527 84.7193C275.902 84.7889 282.226 85.8579 288.268 87.8871C300.312 91.934 310.923 99.7764 316.57 110.947C316.714 111.233 316.854 111.514 316.993 111.805Z" fill="#F0F0F0"/>
<path d="M316.657 112.027C303.661 102.878 288.104 98.0449 272.196 98.2135C268.771 98.1892 265.364 98.7034 262.099 99.7371C258.951 100.847 256.159 102.776 254.013 105.325C251.963 107.662 250.138 110.289 247.555 112.089C246.219 112.99 244.706 113.6 243.117 113.878C241.528 114.156 239.898 114.096 238.334 113.701C234.411 112.82 231.04 110.586 227.819 108.287C224.243 105.734 220.569 103.026 216.13 102.274C215.592 102.183 215.766 101.356 216.303 101.447C224.026 102.756 229.102 109.507 236.23 112.19C239.557 113.442 243.282 113.702 246.425 111.814C249.173 110.163 251.058 107.456 253.112 105.072C255.17 102.554 257.814 100.578 260.815 99.314C264.016 98.1179 267.398 97.4736 270.816 97.4089C278.509 97.1409 286.197 98.0805 293.597 100.193C302.056 102.558 310.047 106.348 317.224 111.4C317.668 111.713 317.098 112.338 316.657 112.027Z" fill="white"/>
<path d="M277.315 97.8586C277.649 95.1936 278.922 92.7337 280.907 90.9182C282.892 89.1027 285.46 88.05 288.151 87.9478C288.696 87.929 288.751 88.7721 288.206 88.7909C285.699 88.8814 283.307 89.8623 281.462 91.5567C279.617 93.251 278.441 95.5471 278.144 98.0306C278.079 98.5702 277.25 98.3951 277.315 97.8586Z" fill="white"/>
<path d="M254.895 104.004C258.237 108.368 263.105 111.315 268.529 112.258C269.067 112.351 268.894 113.178 268.357 113.085C262.714 112.093 257.654 109.016 254.187 104.467C253.856 104.033 254.567 103.573 254.895 104.004Z" fill="white"/>
<path d="M301.347 103.428C301.003 104.432 300.913 105.506 301.088 106.553C301.262 107.6 301.695 108.588 302.347 109.427C302.682 109.856 301.972 110.317 301.638 109.89C300.923 108.96 300.446 107.868 300.251 106.712C300.056 105.555 300.147 104.369 300.518 103.256C300.544 103.148 300.61 103.054 300.703 102.993C300.797 102.932 300.909 102.909 301.019 102.928C301.129 102.951 301.225 103.017 301.286 103.111C301.348 103.204 301.37 103.318 301.347 103.428Z" fill="white"/>
<path d="M245.157 72.1405H243.485V26.4465C243.485 22.9735 242.798 19.5345 241.466 16.3259C240.133 13.1172 238.179 10.2018 235.716 7.746C233.253 5.29022 230.329 3.34219 227.111 2.01313C223.893 0.684065 220.444 1.87231e-06 216.961 0H119.869C116.386 -7.48894e-06 112.937 0.684042 109.719 2.01309C106.501 3.34215 103.577 5.29017 101.114 7.74594C98.6509 10.2017 96.6972 13.1172 95.3642 16.3258C94.0313 19.5344 93.3452 22.9734 93.3452 26.4464V277.128C93.3452 284.142 96.1397 290.868 101.114 295.828C106.088 300.788 112.834 303.574 119.869 303.574H216.961C223.995 303.574 230.742 300.788 235.716 295.828C240.69 290.868 243.485 284.142 243.485 277.128V104.666H245.157V72.1405Z" fill="#3F3D56"/>
<path d="M218.031 6.88051H205.357C205.94 8.30526 206.163 9.85106 206.005 11.3817C205.848 12.9124 205.315 14.381 204.454 15.6581C203.594 16.9352 202.431 17.9816 201.069 18.7052C199.707 19.4288 198.188 19.8073 196.645 19.8074H141.022C139.479 19.8073 137.959 19.4288 136.597 18.7052C135.235 17.9816 134.073 16.9352 133.212 15.6581C132.351 14.381 131.819 12.9124 131.661 11.3817C131.504 9.85105 131.726 8.30524 132.309 6.88049H120.472C115.218 6.88049 110.18 8.96128 106.466 12.6651C102.751 16.3689 100.664 21.3924 100.664 26.6304V276.944C100.664 279.537 101.176 282.106 102.172 284.502C103.167 286.898 104.626 289.075 106.466 290.909C108.305 292.743 110.488 294.198 112.892 295.19C115.295 296.183 117.871 296.694 120.472 296.694H218.031C220.632 296.694 223.208 296.183 225.611 295.19C228.014 294.198 230.198 292.743 232.037 290.909C233.877 289.075 235.336 286.898 236.331 284.502C237.326 282.106 237.839 279.537 237.839 276.944V26.6304C237.839 21.3924 235.752 16.3689 232.037 12.6651C228.323 8.96129 223.284 6.88051 218.031 6.88051Z" fill="white"/>
<path d="M171.126 216.283C163.942 216.29 156.827 214.884 150.189 212.146C143.55 209.408 137.518 205.391 132.438 200.326C127.358 195.261 123.33 189.247 120.584 182.627C117.837 176.008 116.427 168.914 116.434 161.751C116.424 151.692 119.208 141.827 124.478 133.25C129.747 124.673 137.297 117.719 146.288 113.159C152.806 109.852 159.922 107.88 167.216 107.358C174.51 106.836 181.835 107.775 188.76 110.119C201.023 114.286 211.405 122.658 218.057 133.744C224.708 144.83 227.197 157.91 225.08 170.655C222.963 183.4 216.378 194.981 206.497 203.337C196.617 211.693 184.082 216.281 171.126 216.283ZM171.126 109.356C162.829 109.332 154.647 111.289 147.264 115.063C140.81 118.342 135.105 122.915 130.509 128.496C125.912 134.077 122.522 140.546 120.551 147.495C118.581 154.445 118.073 161.725 119.059 168.88C120.044 176.035 122.503 182.909 126.28 189.071C130.057 195.234 135.071 200.551 141.007 204.689C146.943 208.828 153.672 211.698 160.774 213.119C167.875 214.541 175.194 214.484 182.272 212.951C189.35 211.418 196.034 208.443 201.904 204.212C204.742 202.17 207.366 199.848 209.737 197.282C216.671 189.801 221.267 180.466 222.962 170.421C224.657 160.376 223.377 150.056 219.279 140.725C215.182 131.393 208.444 123.456 199.891 117.885C191.339 112.313 181.342 109.35 171.126 109.356Z" fill="#F0F0F0"/>
<path d="M52.6162 113.355C54.1174 113.542 55.5591 114.056 56.8398 114.859C58.1204 115.663 59.2088 116.736 60.0283 118.004C60.8478 119.272 61.3784 120.704 61.5829 122.199C61.7874 123.694 61.6607 125.215 61.2117 126.656L79.3832 141.748L72.8782 154.995L47.5168 133.323C45.1396 132.41 43.1806 130.66 42.0111 128.404C40.8416 126.147 40.5428 123.542 41.1714 121.08C41.8 118.619 43.3122 116.473 45.4216 115.049C47.5309 113.625 50.0908 113.022 52.6162 113.355Z" fill="#FFB6B6"/>
<path d="M222.329 176.293C221.965 172.386 220.458 165.364 219.18 162.768C215.25 152.512 189.857 144.082 186.447 142.996L185.582 133.408L150.3 129.623L145.824 141.883L133.17 146.617C132.311 146.936 131.534 147.441 130.893 148.096C130.253 148.75 129.766 149.538 129.467 150.402L118.114 153.674L106.911 156.903L67.9903 129.558L66.1527 130.756L53.8704 138.747L51.9756 139.98L102.342 185.289L121.052 180.912L135.122 177.611L136.323 182.473L133.213 199.553C142.223 208.54 154.149 214.032 166.853 215.044C179.556 216.057 192.206 212.523 202.533 205.077L210.525 198.006C216.096 192 220.208 184.798 222.544 176.956L222.329 176.293Z" fill="#E4E4E4"/>
<path d="M179.027 121.781C192.345 117.385 199.568 103.055 195.158 89.7747C190.748 76.4947 176.376 69.2935 163.058 73.6904C149.739 78.0872 142.517 92.4172 146.926 105.697C151.336 118.977 165.708 126.178 179.027 121.781Z" fill="#FFB6B6"/>
<path d="M150.977 68.8601C153.446 65.3435 157.152 62.882 161.359 61.9648C165.517 61.112 169.846 61.9036 173.43 64.1726C177.328 62.607 181.531 61.5684 185.66 62.0964C189.788 62.6244 193.835 64.924 195.746 68.7125C196.148 69.694 196.635 70.6382 197.203 71.5345C198.886 73.7736 202.014 74.0641 204.777 74.1716C203.38 74.9839 201.983 75.7961 200.586 76.6082C201.978 77.255 203.371 77.9019 204.763 78.5488C202.868 79.27 200.973 79.9912 199.079 80.7125C203.489 84.5778 204.555 91.4567 202.885 97.224C201.305 102.684 197.68 107.281 193.632 111.216C192.843 108.28 193.711 105.096 194.29 102.056C194.901 98.8441 194.999 95.0882 192.743 92.8203C191.221 91.2906 188.989 90.8284 186.885 90.4573C176.269 88.5852 165.555 87.3168 154.794 86.658C153.354 86.4596 151.887 86.6089 150.517 87.0935C147.898 88.2537 146.846 91.4401 146.087 94.2654C145.724 89.3062 146.014 84.3209 146.951 79.437C147.669 75.6991 148.8 71.9578 150.977 68.8601Z" fill="#2F2E41"/>
<path d="M183.995 241.976H153.968C152.925 241.976 151.925 241.563 151.187 240.828C150.45 240.093 150.036 239.095 150.036 238.056C150.036 237.016 150.45 236.019 151.187 235.283C151.925 234.548 152.925 234.135 153.968 234.135H183.995C185.038 234.135 186.038 234.548 186.775 235.283C187.513 236.019 187.927 237.016 187.927 238.056C187.927 239.095 187.513 240.093 186.775 240.828C186.038 241.563 185.038 241.976 183.995 241.976Z" fill="white"/>
<path d="M85.4645 32.1674H2.87251C2.11143 32.1662 1.38191 31.8639 0.844166 31.3269C0.306422 30.7898 0.00439453 30.062 0.00439453 29.3031C0.00439453 28.5442 0.306422 27.8164 0.844166 27.2794C1.38191 26.7423 2.11143 26.44 2.87251 26.4388H85.4645C86.2264 26.4388 86.957 26.7406 87.4957 27.2778C88.0345 27.8149 88.3371 28.5435 88.3371 29.3031C88.3371 30.0628 88.0345 30.7913 87.4957 31.3285C86.957 31.8656 86.2264 32.1674 85.4645 32.1674Z" fill="white"/>
<path d="M133.15 50.4613H2.87246C2.11063 50.4613 1.38001 50.1596 0.841321 49.6225C0.30263 49.0853 0 48.3569 0 47.5972C0 46.8376 0.30263 46.1091 0.841321 45.572C1.38001 45.0349 2.11063 44.7332 2.87246 44.7332H133.15C133.912 44.7332 134.643 45.0349 135.181 45.572C135.72 46.1091 136.023 46.8376 136.023 47.5972C136.023 48.3569 135.72 49.0853 135.181 49.6225C134.643 50.1596 133.912 50.4613 133.15 50.4613Z" fill="white"/>
<path d="M108.115 67.696H2.87246C2.11064 67.696 1.38001 67.3942 0.841321 66.8571C0.30263 66.32 0 65.5915 0 64.8319C0 64.0723 0.30263 63.3438 0.841321 62.8066C1.38001 62.2695 2.11064 61.9678 2.87246 61.9678H108.115C108.877 61.9678 109.607 62.2695 110.146 62.8066C110.685 63.3438 110.988 64.0723 110.988 64.8319C110.988 65.5915 110.685 66.32 110.146 66.8571C109.607 67.3942 108.877 67.696 108.115 67.696Z" fill="#CACACA"/>
<path d="M62.218 84.8673H2.87246C2.11064 84.8673 1.38001 84.5656 0.84132 84.0285C0.30263 83.4914 0 82.7629 0 82.0033C0 81.2436 0.30263 80.5152 0.84132 79.978C1.38001 79.4409 2.11064 79.1392 2.87246 79.1392H62.218C62.9798 79.1392 63.7105 79.4409 64.2491 79.978C64.7878 80.5152 65.0905 81.2436 65.0905 82.0033C65.0905 82.7629 64.7878 83.4914 64.2491 84.0285C63.7105 84.5656 62.9798 84.8673 62.218 84.8673Z" fill="#CACACA"/>
<path d="M95.0017 102.037H2.87232C2.11128 102.036 1.38183 101.734 0.844122 101.197C0.306411 100.66 0.00439453 99.932 0.00439453 99.1732C0.00439453 98.4144 0.306411 97.6865 0.844122 97.1495C1.38183 96.6125 2.11128 96.3103 2.87232 96.3091H95.0017C95.7627 96.3103 96.4922 96.6125 97.0299 97.1495C97.5676 97.6865 97.8696 98.4144 97.8696 99.1732C97.8696 99.932 97.5676 100.66 97.0299 101.197C96.4922 101.734 95.7627 102.036 95.0017 102.037Z" fill="#CACACA"/>
<path d="M354.648 382.248L347.245 382.247L343.724 353.777L354.649 353.778L354.648 382.248Z" fill="#9F616A"/>
<path d="M357.56 392.462L329.298 392.461V392.105C329.299 389.196 330.458 386.406 332.52 384.35C334.583 382.293 337.381 381.137 340.299 381.137H340.299L345.462 377.232L355.094 381.138L357.561 381.138L357.56 392.462Z" fill="#2F2E41"/>
<path d="M350.334 248.446L347.07 208.756L344.505 193.858L358.865 190.696L363.63 211.091L359.478 249.548C360.316 250.571 360.827 251.82 360.947 253.136C361.067 254.451 360.789 255.772 360.151 256.929C359.512 258.086 358.541 259.026 357.362 259.628C356.183 260.23 354.851 260.468 353.536 260.309C352.221 260.151 350.983 259.604 349.983 258.739C348.982 257.874 348.263 256.731 347.919 255.455C347.575 254.18 347.621 252.831 348.051 251.582C348.482 250.333 349.277 249.241 350.334 248.446Z" fill="#9F616A"/>
<path d="M315.326 382.248L307.924 382.247L304.402 353.777L315.328 353.778L315.326 382.248Z" fill="#9F616A"/>
<path d="M303.48 257.444L300.198 263.104C300.198 263.104 296.592 264.086 297.771 275.806C298.949 287.526 299 356.963 304.704 365.508L305.736 372.845L316.508 373.871L316.78 367.361L329.624 276.912C329.624 276.912 337.188 365.704 343.446 367.877L345.706 375.274L355.578 375.279L354.995 366.561L355.631 256.526L303.48 257.444Z" fill="#2F2E41"/>
<path d="M299.872 262.673L299.645 262.614C306.418 237.354 304.465 204.643 299.682 169.519L299.682 169.373L316.972 153.583H331.985L346.869 163.16C356.49 167.957 358.677 178.115 358.698 178.217L358.713 178.29L352.817 198.808L357.259 258.148L357.264 258.217L357.238 258.281C355.801 261.915 351.949 261.397 347.489 260.798C343.037 260.199 326.631 265.673 321.6 265.673C311.769 265.673 300.574 262.852 299.872 262.673Z" fill="#E4E4E4"/>
<path d="M343.752 171.158L350.201 168.36L358.699 178.748L365.587 212.037L341.994 208.472L343.752 171.158Z" fill="#E4E4E4"/>
<path d="M244.549 232.542L274.033 205.678L284.28 194.538L295.576 203.927L282.315 220.166L249.271 240.426C248.972 241.713 248.293 242.881 247.323 243.78C246.354 244.68 245.136 245.269 243.828 245.473C242.519 245.678 241.179 245.487 239.98 244.926C238.781 244.365 237.777 243.46 237.098 242.326C236.419 241.192 236.095 239.882 236.169 238.563C236.242 237.244 236.71 235.978 237.511 234.926C238.312 233.874 239.41 233.085 240.664 232.66C241.918 232.235 243.271 232.194 244.549 232.542Z" fill="#9F616A"/>
<path d="M273.391 205.97L281.557 195.396C281.625 195.245 288.4 180.149 294.273 173.589C300.297 166.861 305.04 170.302 305.087 170.339L305.205 170.428L305.533 195.275L282.921 222.215L273.391 205.97Z" fill="#E4E4E4"/>
<path d="M336.575 138.71C337.792 131.229 332.697 124.181 325.194 122.967C317.691 121.753 310.622 126.833 309.404 134.314C308.187 141.795 313.282 148.844 320.785 150.058C328.288 151.272 335.357 146.191 336.575 138.71Z" fill="#9F616A"/>
<path d="M310.407 134.475C310.407 134.475 310.297 129.651 309.685 127.516C309.073 125.381 307.85 123.552 308.462 123.552C309.073 123.552 309.379 122.027 309.379 122.027C309.379 122.027 309.991 121.722 310.297 122.027C310.603 122.332 310.908 119.892 310.908 119.892C310.908 119.892 311.214 118.977 311.52 119.587C311.826 120.197 311.826 119.892 312.132 118.977C312.438 118.062 313.967 117.453 313.967 117.453C313.967 117.453 319.778 117.757 320.695 116.538C321.613 115.318 332.012 116.233 334.152 117.757C336.293 119.282 345.775 124.771 344.245 129.346C342.716 133.92 338.314 144.452 337.211 145.508C335.466 147.178 334.259 147.78 326.005 149.418C324.39 149.738 316.145 144.48 316.145 143.566C316.145 142.651 317.138 139.749 315.541 139.351C313.125 138.749 312.854 141.794 312.242 140.879C311.63 139.964 310.407 134.475 310.407 134.475Z" fill="#2F2E41"/>
<path d="M318.239 392.462L289.978 392.461V392.105C289.978 389.196 291.137 386.406 293.2 384.35C295.263 382.293 298.06 381.137 300.978 381.137H300.979L306.141 377.232L315.773 381.138L318.24 381.138L318.239 392.462Z" fill="#2F2E41"/>
<path d="M465.149 393H2.37908C2.15331 393 1.93681 392.911 1.77717 392.751C1.61753 392.592 1.52783 392.376 1.52783 392.151C1.52783 391.926 1.61753 391.71 1.77717 391.551C1.93681 391.392 2.15331 391.302 2.37908 391.302H465.149C465.374 391.302 465.591 391.392 465.751 391.551C465.91 391.71 466 391.926 466 392.151C466 392.376 465.91 392.592 465.751 392.751C465.591 392.911 465.374 393 465.149 393Z" fill="#CACACA"/>
</g>
<defs>
<clipPath id="clip0_52_858">
<rect width="466" height="393" fill="white"/>
</clipPath>
</defs>
</svg>
