<svg width="63" height="67" viewBox="0 0 63 67" fill="none" xmlns="http://www.w3.org/2000/svg">
<path d="M2.03226 66.0147C2.03226 65.4705 1.57732 65.0294 1.01613 65.0294C0.454936 65.0294 0 65.4705 0 66.0147C0 66.5589 0.454936 67 1.01613 67C1.57732 67 2.03226 66.5589 2.03226 66.0147Z" fill="#5FB961"/>
<path d="M8.12903 66.0147C8.12903 65.4705 7.6741 65.0294 7.1129 65.0294C6.55171 65.0294 6.09677 65.4705 6.09677 66.0147C6.09677 66.5589 6.55171 67 7.1129 67C7.6741 67 8.12903 66.5589 8.12903 66.0147Z" fill="#5FB961"/>
<path d="M14.2258 66.0147C14.2258 65.4705 13.7709 65.0294 13.2097 65.0294C12.6485 65.0294 12.1935 65.4705 12.1935 66.0147C12.1935 66.5589 12.6485 67 13.2097 67C13.7709 67 14.2258 66.5589 14.2258 66.0147Z" fill="#5FB961"/>
<path d="M20.3226 66.0147C20.3226 65.4705 19.8676 65.0294 19.3065 65.0294C18.7453 65.0294 18.2903 65.4705 18.2903 66.0147C18.2903 66.5589 18.7453 67 19.3065 67C19.8676 67 20.3226 66.5589 20.3226 66.0147Z" fill="#5FB961"/>
<path d="M26.4194 66.0147C26.4194 65.4705 25.9644 65.0294 25.4032 65.0294C24.842 65.0294 24.3871 65.4705 24.3871 66.0147C24.3871 66.5589 24.842 67 25.4032 67C25.9644 67 26.4194 66.5589 26.4194 66.0147Z" fill="#5FB961"/>
<path d="M32.5161 66.0147C32.5161 65.4705 32.0612 65.0294 31.5 65.0294C30.9388 65.0294 30.4839 65.4705 30.4839 66.0147C30.4839 66.5589 30.9388 67 31.5 67C32.0612 67 32.5161 66.5589 32.5161 66.0147Z" fill="#5FB961"/>
<path d="M38.6129 66.0147C38.6129 65.4705 38.158 65.0294 37.5968 65.0294C37.0356 65.0294 36.5806 65.4705 36.5806 66.0147C36.5806 66.5589 37.0356 67 37.5968 67C38.158 67 38.6129 66.5589 38.6129 66.0147Z" fill="#5FB961"/>
<path d="M44.7097 66.0147C44.7097 65.4705 44.2547 65.0294 43.6935 65.0294C43.1324 65.0294 42.6774 65.4705 42.6774 66.0147C42.6774 66.5589 43.1324 67 43.6935 67C44.2547 67 44.7097 66.5589 44.7097 66.0147Z" fill="#5FB961"/>
<path d="M50.8065 66.0147C50.8065 65.4705 50.3515 65.0294 49.7903 65.0294C49.2291 65.0294 48.7742 65.4705 48.7742 66.0147C48.7742 66.5589 49.2291 67 49.7903 67C50.3515 67 50.8065 66.5589 50.8065 66.0147Z" fill="#5FB961"/>
<path d="M56.9032 66.0147C56.9032 65.4705 56.4483 65.0294 55.8871 65.0294C55.3259 65.0294 54.871 65.4705 54.871 66.0147C54.871 66.5589 55.3259 67 55.8871 67C56.4483 67 56.9032 66.5589 56.9032 66.0147Z" fill="#5FB961"/>
<path d="M63 66.0147C63 65.4705 62.5451 65.0294 61.9839 65.0294C61.4227 65.0294 60.9677 65.4705 60.9677 66.0147C60.9677 66.5589 61.4227 67 61.9839 67C62.5451 67 63 66.5589 63 66.0147Z" fill="#5FB961"/>
<path d="M2.03226 60.1029C2.03226 59.5588 1.57732 59.1176 1.01613 59.1176C0.454936 59.1176 0 59.5588 0 60.1029C0 60.6471 0.454936 61.0882 1.01613 61.0882C1.57732 61.0882 2.03226 60.6471 2.03226 60.1029Z" fill="#5FB961"/>
<path d="M8.12903 60.1029C8.12903 59.5588 7.6741 59.1176 7.1129 59.1176C6.55171 59.1176 6.09677 59.5588 6.09677 60.1029C6.09677 60.6471 6.55171 61.0882 7.1129 61.0882C7.6741 61.0882 8.12903 60.6471 8.12903 60.1029Z" fill="#5FB961"/>
<path d="M14.2258 60.1029C14.2258 59.5588 13.7709 59.1176 13.2097 59.1176C12.6485 59.1176 12.1935 59.5588 12.1935 60.1029C12.1935 60.6471 12.6485 61.0882 13.2097 61.0882C13.7709 61.0882 14.2258 60.6471 14.2258 60.1029Z" fill="#5FB961"/>
<path d="M20.3226 60.1029C20.3226 59.5588 19.8676 59.1176 19.3065 59.1176C18.7453 59.1176 18.2903 59.5588 18.2903 60.1029C18.2903 60.6471 18.7453 61.0882 19.3065 61.0882C19.8676 61.0882 20.3226 60.6471 20.3226 60.1029Z" fill="#5FB961"/>
<path d="M26.4194 60.1029C26.4194 59.5588 25.9644 59.1176 25.4032 59.1176C24.842 59.1176 24.3871 59.5588 24.3871 60.1029C24.3871 60.6471 24.842 61.0882 25.4032 61.0882C25.9644 61.0882 26.4194 60.6471 26.4194 60.1029Z" fill="#5FB961"/>
<path d="M32.5161 60.1029C32.5161 59.5588 32.0612 59.1176 31.5 59.1176C30.9388 59.1176 30.4839 59.5588 30.4839 60.1029C30.4839 60.6471 30.9388 61.0882 31.5 61.0882C32.0612 61.0882 32.5161 60.6471 32.5161 60.1029Z" fill="#5FB961"/>
<path d="M38.6129 60.1029C38.6129 59.5588 38.158 59.1176 37.5968 59.1176C37.0356 59.1176 36.5806 59.5588 36.5806 60.1029C36.5806 60.6471 37.0356 61.0882 37.5968 61.0882C38.158 61.0882 38.6129 60.6471 38.6129 60.1029Z" fill="#5FB961"/>
<path d="M44.7097 60.1029C44.7097 59.5588 44.2547 59.1176 43.6935 59.1176C43.1324 59.1176 42.6774 59.5588 42.6774 60.1029C42.6774 60.6471 43.1324 61.0882 43.6935 61.0882C44.2547 61.0882 44.7097 60.6471 44.7097 60.1029Z" fill="#5FB961"/>
<path d="M50.8065 60.1029C50.8065 59.5588 50.3515 59.1176 49.7903 59.1176C49.2291 59.1176 48.7742 59.5588 48.7742 60.1029C48.7742 60.6471 49.2291 61.0882 49.7903 61.0882C50.3515 61.0882 50.8065 60.6471 50.8065 60.1029Z" fill="#5FB961"/>
<path d="M56.9032 60.1029C56.9032 59.5588 56.4483 59.1176 55.8871 59.1176C55.3259 59.1176 54.871 59.5588 54.871 60.1029C54.871 60.6471 55.3259 61.0882 55.8871 61.0882C56.4483 61.0882 56.9032 60.6471 56.9032 60.1029Z" fill="#5FB961"/>
<path d="M63 60.1029C63 59.5588 62.5451 59.1176 61.9839 59.1176C61.4227 59.1176 60.9677 59.5588 60.9677 60.1029C60.9677 60.6471 61.4227 61.0882 61.9839 61.0882C62.5451 61.0882 63 60.6471 63 60.1029Z" fill="#5FB961"/>
<path d="M2.03226 54.1912C2.03226 53.647 1.57732 53.2059 1.01613 53.2059C0.454936 53.2059 0 53.647 0 54.1912C0 54.7353 0.454936 55.1765 1.01613 55.1765C1.57732 55.1765 2.03226 54.7353 2.03226 54.1912Z" fill="#5FB961"/>
<path d="M8.12903 54.1912C8.12903 53.647 7.6741 53.2059 7.1129 53.2059C6.55171 53.2059 6.09677 53.647 6.09677 54.1912C6.09677 54.7353 6.55171 55.1765 7.1129 55.1765C7.6741 55.1765 8.12903 54.7353 8.12903 54.1912Z" fill="#5FB961"/>
<path d="M14.2258 54.1912C14.2258 53.647 13.7709 53.2059 13.2097 53.2059C12.6485 53.2059 12.1935 53.647 12.1935 54.1912C12.1935 54.7353 12.6485 55.1765 13.2097 55.1765C13.7709 55.1765 14.2258 54.7353 14.2258 54.1912Z" fill="#5FB961"/>
<path d="M20.3226 54.1912C20.3226 53.647 19.8676 53.2059 19.3065 53.2059C18.7453 53.2059 18.2903 53.647 18.2903 54.1912C18.2903 54.7353 18.7453 55.1765 19.3065 55.1765C19.8676 55.1765 20.3226 54.7353 20.3226 54.1912Z" fill="#5FB961"/>
<path d="M26.4194 54.1912C26.4194 53.647 25.9644 53.2059 25.4032 53.2059C24.842 53.2059 24.3871 53.647 24.3871 54.1912C24.3871 54.7353 24.842 55.1765 25.4032 55.1765C25.9644 55.1765 26.4194 54.7353 26.4194 54.1912Z" fill="#5FB961"/>
<path d="M32.5161 54.1912C32.5161 53.647 32.0612 53.2059 31.5 53.2059C30.9388 53.2059 30.4839 53.647 30.4839 54.1912C30.4839 54.7353 30.9388 55.1765 31.5 55.1765C32.0612 55.1765 32.5161 54.7353 32.5161 54.1912Z" fill="#5FB961"/>
<path d="M38.6129 54.1912C38.6129 53.647 38.158 53.2059 37.5968 53.2059C37.0356 53.2059 36.5806 53.647 36.5806 54.1912C36.5806 54.7353 37.0356 55.1765 37.5968 55.1765C38.158 55.1765 38.6129 54.7353 38.6129 54.1912Z" fill="#5FB961"/>
<path d="M44.7097 54.1912C44.7097 53.647 44.2547 53.2059 43.6935 53.2059C43.1324 53.2059 42.6774 53.647 42.6774 54.1912C42.6774 54.7353 43.1324 55.1765 43.6935 55.1765C44.2547 55.1765 44.7097 54.7353 44.7097 54.1912Z" fill="#5FB961"/>
<path d="M50.8065 54.1912C50.8065 53.647 50.3515 53.2059 49.7903 53.2059C49.2291 53.2059 48.7742 53.647 48.7742 54.1912C48.7742 54.7353 49.2291 55.1765 49.7903 55.1765C50.3515 55.1765 50.8065 54.7353 50.8065 54.1912Z" fill="#5FB961"/>
<path d="M56.9032 54.1912C56.9032 53.647 56.4483 53.2059 55.8871 53.2059C55.3259 53.2059 54.871 53.647 54.871 54.1912C54.871 54.7353 55.3259 55.1765 55.8871 55.1765C56.4483 55.1765 56.9032 54.7353 56.9032 54.1912Z" fill="#5FB961"/>
<path d="M63 54.1912C63 53.647 62.5451 53.2059 61.9839 53.2059C61.4227 53.2059 60.9677 53.647 60.9677 54.1912C60.9677 54.7353 61.4227 55.1765 61.9839 55.1765C62.5451 55.1765 63 54.7353 63 54.1912Z" fill="#5FB961"/>
<path d="M2.03226 48.2794C2.03226 47.7352 1.57732 47.2941 1.01613 47.2941C0.454936 47.2941 0 47.7352 0 48.2794C0 48.8236 0.454936 49.2647 1.01613 49.2647C1.57732 49.2647 2.03226 48.8236 2.03226 48.2794Z" fill="#5FB961"/>
<path d="M8.12903 48.2794C8.12903 47.7352 7.6741 47.2941 7.1129 47.2941C6.55171 47.2941 6.09677 47.7352 6.09677 48.2794C6.09677 48.8236 6.55171 49.2647 7.1129 49.2647C7.6741 49.2647 8.12903 48.8236 8.12903 48.2794Z" fill="#5FB961"/>
<path d="M14.2258 48.2794C14.2258 47.7352 13.7709 47.2941 13.2097 47.2941C12.6485 47.2941 12.1935 47.7352 12.1935 48.2794C12.1935 48.8236 12.6485 49.2647 13.2097 49.2647C13.7709 49.2647 14.2258 48.8236 14.2258 48.2794Z" fill="#5FB961"/>
<path d="M20.3226 48.2794C20.3226 47.7352 19.8676 47.2941 19.3065 47.2941C18.7453 47.2941 18.2903 47.7352 18.2903 48.2794C18.2903 48.8236 18.7453 49.2647 19.3065 49.2647C19.8676 49.2647 20.3226 48.8236 20.3226 48.2794Z" fill="#5FB961"/>
<path d="M26.4194 48.2794C26.4194 47.7352 25.9644 47.2941 25.4032 47.2941C24.842 47.2941 24.3871 47.7352 24.3871 48.2794C24.3871 48.8236 24.842 49.2647 25.4032 49.2647C25.9644 49.2647 26.4194 48.8236 26.4194 48.2794Z" fill="#5FB961"/>
<path d="M32.5161 48.2794C32.5161 47.7352 32.0612 47.2941 31.5 47.2941C30.9388 47.2941 30.4839 47.7352 30.4839 48.2794C30.4839 48.8236 30.9388 49.2647 31.5 49.2647C32.0612 49.2647 32.5161 48.8236 32.5161 48.2794Z" fill="#5FB961"/>
<path d="M38.6129 48.2794C38.6129 47.7352 38.158 47.2941 37.5968 47.2941C37.0356 47.2941 36.5806 47.7352 36.5806 48.2794C36.5806 48.8236 37.0356 49.2647 37.5968 49.2647C38.158 49.2647 38.6129 48.8236 38.6129 48.2794Z" fill="#5FB961"/>
<path d="M44.7097 48.2794C44.7097 47.7352 44.2547 47.2941 43.6935 47.2941C43.1324 47.2941 42.6774 47.7352 42.6774 48.2794C42.6774 48.8236 43.1324 49.2647 43.6935 49.2647C44.2547 49.2647 44.7097 48.8236 44.7097 48.2794Z" fill="#5FB961"/>
<path d="M50.8065 48.2794C50.8065 47.7352 50.3515 47.2941 49.7903 47.2941C49.2291 47.2941 48.7742 47.7352 48.7742 48.2794C48.7742 48.8236 49.2291 49.2647 49.7903 49.2647C50.3515 49.2647 50.8065 48.8236 50.8065 48.2794Z" fill="#5FB961"/>
<path d="M56.9032 48.2794C56.9032 47.7352 56.4483 47.2941 55.8871 47.2941C55.3259 47.2941 54.871 47.7352 54.871 48.2794C54.871 48.8236 55.3259 49.2647 55.8871 49.2647C56.4483 49.2647 56.9032 48.8236 56.9032 48.2794Z" fill="#5FB961"/>
<path d="M63 48.2794C63 47.7352 62.5451 47.2941 61.9839 47.2941C61.4227 47.2941 60.9677 47.7352 60.9677 48.2794C60.9677 48.8236 61.4227 49.2647 61.9839 49.2647C62.5451 49.2647 63 48.8236 63 48.2794Z" fill="#5FB961"/>
<path d="M2.03226 42.3676C2.03226 41.8235 1.57732 41.3824 1.01613 41.3824C0.454936 41.3824 0 41.8235 0 42.3676C0 42.9118 0.454936 43.3529 1.01613 43.3529C1.57732 43.3529 2.03226 42.9118 2.03226 42.3676Z" fill="#5FB961"/>
<path d="M8.12903 42.3676C8.12903 41.8235 7.6741 41.3824 7.1129 41.3824C6.55171 41.3824 6.09677 41.8235 6.09677 42.3676C6.09677 42.9118 6.55171 43.3529 7.1129 43.3529C7.6741 43.3529 8.12903 42.9118 8.12903 42.3676Z" fill="#5FB961"/>
<path d="M14.2258 42.3676C14.2258 41.8235 13.7709 41.3824 13.2097 41.3824C12.6485 41.3824 12.1935 41.8235 12.1935 42.3676C12.1935 42.9118 12.6485 43.3529 13.2097 43.3529C13.7709 43.3529 14.2258 42.9118 14.2258 42.3676Z" fill="#5FB961"/>
<path d="M20.3226 42.3676C20.3226 41.8235 19.8676 41.3824 19.3065 41.3824C18.7453 41.3824 18.2903 41.8235 18.2903 42.3676C18.2903 42.9118 18.7453 43.3529 19.3065 43.3529C19.8676 43.3529 20.3226 42.9118 20.3226 42.3676Z" fill="#5FB961"/>
<path d="M26.4194 42.3676C26.4194 41.8235 25.9644 41.3824 25.4032 41.3824C24.842 41.3824 24.3871 41.8235 24.3871 42.3676C24.3871 42.9118 24.842 43.3529 25.4032 43.3529C25.9644 43.3529 26.4194 42.9118 26.4194 42.3676Z" fill="#5FB961"/>
<path d="M32.5161 42.3676C32.5161 41.8235 32.0612 41.3824 31.5 41.3824C30.9388 41.3824 30.4839 41.8235 30.4839 42.3676C30.4839 42.9118 30.9388 43.3529 31.5 43.3529C32.0612 43.3529 32.5161 42.9118 32.5161 42.3676Z" fill="#5FB961"/>
<path d="M38.6129 42.3676C38.6129 41.8235 38.158 41.3824 37.5968 41.3824C37.0356 41.3824 36.5806 41.8235 36.5806 42.3676C36.5806 42.9118 37.0356 43.3529 37.5968 43.3529C38.158 43.3529 38.6129 42.9118 38.6129 42.3676Z" fill="#5FB961"/>
<path d="M44.7097 42.3676C44.7097 41.8235 44.2547 41.3824 43.6935 41.3824C43.1324 41.3824 42.6774 41.8235 42.6774 42.3676C42.6774 42.9118 43.1324 43.3529 43.6935 43.3529C44.2547 43.3529 44.7097 42.9118 44.7097 42.3676Z" fill="#5FB961"/>
<path d="M50.8065 42.3676C50.8065 41.8235 50.3515 41.3824 49.7903 41.3824C49.2291 41.3824 48.7742 41.8235 48.7742 42.3676C48.7742 42.9118 49.2291 43.3529 49.7903 43.3529C50.3515 43.3529 50.8065 42.9118 50.8065 42.3676Z" fill="#5FB961"/>
<path d="M56.9032 42.3676C56.9032 41.8235 56.4483 41.3824 55.8871 41.3824C55.3259 41.3824 54.871 41.8235 54.871 42.3676C54.871 42.9118 55.3259 43.3529 55.8871 43.3529C56.4483 43.3529 56.9032 42.9118 56.9032 42.3676Z" fill="#5FB961"/>
<path d="M63 42.3676C63 41.8235 62.5451 41.3824 61.9839 41.3824C61.4227 41.3824 60.9677 41.8235 60.9677 42.3676C60.9677 42.9118 61.4227 43.3529 61.9839 43.3529C62.5451 43.3529 63 42.9118 63 42.3676Z" fill="#5FB961"/>
<path d="M2.03226 36.4559C2.03226 35.9117 1.57732 35.4706 1.01613 35.4706C0.454936 35.4706 0 35.9117 0 36.4559C0 37 0.454936 37.4412 1.01613 37.4412C1.57732 37.4412 2.03226 37 2.03226 36.4559Z" fill="#5FB961"/>
<path d="M8.12903 36.4559C8.12903 35.9117 7.6741 35.4706 7.1129 35.4706C6.55171 35.4706 6.09677 35.9117 6.09677 36.4559C6.09677 37 6.55171 37.4412 7.1129 37.4412C7.6741 37.4412 8.12903 37 8.12903 36.4559Z" fill="#5FB961"/>
<path d="M14.2258 36.4559C14.2258 35.9117 13.7709 35.4706 13.2097 35.4706C12.6485 35.4706 12.1935 35.9117 12.1935 36.4559C12.1935 37 12.6485 37.4412 13.2097 37.4412C13.7709 37.4412 14.2258 37 14.2258 36.4559Z" fill="#5FB961"/>
<path d="M20.3226 36.4559C20.3226 35.9117 19.8676 35.4706 19.3065 35.4706C18.7453 35.4706 18.2903 35.9117 18.2903 36.4559C18.2903 37 18.7453 37.4412 19.3065 37.4412C19.8676 37.4412 20.3226 37 20.3226 36.4559Z" fill="#5FB961"/>
<path d="M26.4194 36.4559C26.4194 35.9117 25.9644 35.4706 25.4032 35.4706C24.842 35.4706 24.3871 35.9117 24.3871 36.4559C24.3871 37 24.842 37.4412 25.4032 37.4412C25.9644 37.4412 26.4194 37 26.4194 36.4559Z" fill="#5FB961"/>
<path d="M32.5161 36.4559C32.5161 35.9117 32.0612 35.4706 31.5 35.4706C30.9388 35.4706 30.4839 35.9117 30.4839 36.4559C30.4839 37 30.9388 37.4412 31.5 37.4412C32.0612 37.4412 32.5161 37 32.5161 36.4559Z" fill="#5FB961"/>
<path d="M38.6129 36.4559C38.6129 35.9117 38.158 35.4706 37.5968 35.4706C37.0356 35.4706 36.5806 35.9117 36.5806 36.4559C36.5806 37 37.0356 37.4412 37.5968 37.4412C38.158 37.4412 38.6129 37 38.6129 36.4559Z" fill="#5FB961"/>
<path d="M44.7097 36.4559C44.7097 35.9117 44.2547 35.4706 43.6935 35.4706C43.1324 35.4706 42.6774 35.9117 42.6774 36.4559C42.6774 37 43.1324 37.4412 43.6935 37.4412C44.2547 37.4412 44.7097 37 44.7097 36.4559Z" fill="#5FB961"/>
<path d="M50.8065 36.4559C50.8065 35.9117 50.3515 35.4706 49.7903 35.4706C49.2291 35.4706 48.7742 35.9117 48.7742 36.4559C48.7742 37 49.2291 37.4412 49.7903 37.4412C50.3515 37.4412 50.8065 37 50.8065 36.4559Z" fill="#5FB961"/>
<path d="M56.9032 36.4559C56.9032 35.9117 56.4483 35.4706 55.8871 35.4706C55.3259 35.4706 54.871 35.9117 54.871 36.4559C54.871 37 55.3259 37.4412 55.8871 37.4412C56.4483 37.4412 56.9032 37 56.9032 36.4559Z" fill="#5FB961"/>
<path d="M63 36.4559C63 35.9117 62.5451 35.4706 61.9839 35.4706C61.4227 35.4706 60.9677 35.9117 60.9677 36.4559C60.9677 37 61.4227 37.4412 61.9839 37.4412C62.5451 37.4412 63 37 63 36.4559Z" fill="#5FB961"/>
<path d="M2.03226 30.5441C2.03226 30 1.57732 29.5588 1.01613 29.5588C0.454936 29.5588 0 30 0 30.5441C0 31.0883 0.454936 31.5294 1.01613 31.5294C1.57732 31.5294 2.03226 31.0883 2.03226 30.5441Z" fill="#5FB961"/>
<path d="M8.12903 30.5441C8.12903 30 7.6741 29.5588 7.1129 29.5588C6.55171 29.5588 6.09677 30 6.09677 30.5441C6.09677 31.0883 6.55171 31.5294 7.1129 31.5294C7.6741 31.5294 8.12903 31.0883 8.12903 30.5441Z" fill="#5FB961"/>
<path d="M14.2258 30.5441C14.2258 30 13.7709 29.5588 13.2097 29.5588C12.6485 29.5588 12.1935 30 12.1935 30.5441C12.1935 31.0883 12.6485 31.5294 13.2097 31.5294C13.7709 31.5294 14.2258 31.0883 14.2258 30.5441Z" fill="#5FB961"/>
<path d="M20.3226 30.5441C20.3226 30 19.8676 29.5588 19.3065 29.5588C18.7453 29.5588 18.2903 30 18.2903 30.5441C18.2903 31.0883 18.7453 31.5294 19.3065 31.5294C19.8676 31.5294 20.3226 31.0883 20.3226 30.5441Z" fill="#5FB961"/>
<path d="M26.4194 30.5441C26.4194 30 25.9644 29.5588 25.4032 29.5588C24.842 29.5588 24.3871 30 24.3871 30.5441C24.3871 31.0883 24.842 31.5294 25.4032 31.5294C25.9644 31.5294 26.4194 31.0883 26.4194 30.5441Z" fill="#5FB961"/>
<path d="M32.5161 30.5441C32.5161 30 32.0612 29.5588 31.5 29.5588C30.9388 29.5588 30.4839 30 30.4839 30.5441C30.4839 31.0883 30.9388 31.5294 31.5 31.5294C32.0612 31.5294 32.5161 31.0883 32.5161 30.5441Z" fill="#5FB961"/>
<path d="M38.6129 30.5441C38.6129 30 38.158 29.5588 37.5968 29.5588C37.0356 29.5588 36.5806 30 36.5806 30.5441C36.5806 31.0883 37.0356 31.5294 37.5968 31.5294C38.158 31.5294 38.6129 31.0883 38.6129 30.5441Z" fill="#5FB961"/>
<path d="M44.7097 30.5441C44.7097 30 44.2547 29.5588 43.6935 29.5588C43.1324 29.5588 42.6774 30 42.6774 30.5441C42.6774 31.0883 43.1324 31.5294 43.6935 31.5294C44.2547 31.5294 44.7097 31.0883 44.7097 30.5441Z" fill="#5FB961"/>
<path d="M50.8065 30.5441C50.8065 30 50.3515 29.5588 49.7903 29.5588C49.2291 29.5588 48.7742 30 48.7742 30.5441C48.7742 31.0883 49.2291 31.5294 49.7903 31.5294C50.3515 31.5294 50.8065 31.0883 50.8065 30.5441Z" fill="#5FB961"/>
<path d="M56.9032 30.5441C56.9032 30 56.4483 29.5588 55.8871 29.5588C55.3259 29.5588 54.871 30 54.871 30.5441C54.871 31.0883 55.3259 31.5294 55.8871 31.5294C56.4483 31.5294 56.9032 31.0883 56.9032 30.5441Z" fill="#5FB961"/>
<path d="M63 30.5441C63 30 62.5451 29.5588 61.9839 29.5588C61.4227 29.5588 60.9677 30 60.9677 30.5441C60.9677 31.0883 61.4227 31.5294 61.9839 31.5294C62.5451 31.5294 63 31.0883 63 30.5441Z" fill="#5FB961"/>
<path d="M2.03226 24.6324C2.03226 24.0882 1.57732 23.6471 1.01613 23.6471C0.454936 23.6471 0 24.0882 0 24.6324C0 25.1765 0.454936 25.6176 1.01613 25.6176C1.57732 25.6176 2.03226 25.1765 2.03226 24.6324Z" fill="#5FB961"/>
<path d="M8.12903 24.6324C8.12903 24.0882 7.6741 23.6471 7.1129 23.6471C6.55171 23.6471 6.09677 24.0882 6.09677 24.6324C6.09677 25.1765 6.55171 25.6176 7.1129 25.6176C7.6741 25.6176 8.12903 25.1765 8.12903 24.6324Z" fill="#5FB961"/>
<path d="M14.2258 24.6324C14.2258 24.0882 13.7709 23.6471 13.2097 23.6471C12.6485 23.6471 12.1935 24.0882 12.1935 24.6324C12.1935 25.1765 12.6485 25.6176 13.2097 25.6176C13.7709 25.6176 14.2258 25.1765 14.2258 24.6324Z" fill="#5FB961"/>
<path d="M20.3226 24.6324C20.3226 24.0882 19.8676 23.6471 19.3065 23.6471C18.7453 23.6471 18.2903 24.0882 18.2903 24.6324C18.2903 25.1765 18.7453 25.6176 19.3065 25.6176C19.8676 25.6176 20.3226 25.1765 20.3226 24.6324Z" fill="#5FB961"/>
<path d="M26.4194 24.6324C26.4194 24.0882 25.9644 23.6471 25.4032 23.6471C24.842 23.6471 24.3871 24.0882 24.3871 24.6324C24.3871 25.1765 24.842 25.6176 25.4032 25.6176C25.9644 25.6176 26.4194 25.1765 26.4194 24.6324Z" fill="#5FB961"/>
<path d="M32.5161 24.6324C32.5161 24.0882 32.0612 23.6471 31.5 23.6471C30.9388 23.6471 30.4839 24.0882 30.4839 24.6324C30.4839 25.1765 30.9388 25.6176 31.5 25.6176C32.0612 25.6176 32.5161 25.1765 32.5161 24.6324Z" fill="#5FB961"/>
<path d="M38.6129 24.6324C38.6129 24.0882 38.158 23.6471 37.5968 23.6471C37.0356 23.6471 36.5806 24.0882 36.5806 24.6324C36.5806 25.1765 37.0356 25.6176 37.5968 25.6176C38.158 25.6176 38.6129 25.1765 38.6129 24.6324Z" fill="#5FB961"/>
<path d="M44.7097 24.6324C44.7097 24.0882 44.2547 23.6471 43.6935 23.6471C43.1324 23.6471 42.6774 24.0882 42.6774 24.6324C42.6774 25.1765 43.1324 25.6176 43.6935 25.6176C44.2547 25.6176 44.7097 25.1765 44.7097 24.6324Z" fill="#5FB961"/>
<path d="M50.8065 24.6324C50.8065 24.0882 50.3515 23.6471 49.7903 23.6471C49.2291 23.6471 48.7742 24.0882 48.7742 24.6324C48.7742 25.1765 49.2291 25.6176 49.7903 25.6176C50.3515 25.6176 50.8065 25.1765 50.8065 24.6324Z" fill="#5FB961"/>
<path d="M56.9032 24.6324C56.9032 24.0882 56.4483 23.6471 55.8871 23.6471C55.3259 23.6471 54.871 24.0882 54.871 24.6324C54.871 25.1765 55.3259 25.6176 55.8871 25.6176C56.4483 25.6176 56.9032 25.1765 56.9032 24.6324Z" fill="#5FB961"/>
<path d="M63 24.6324C63 24.0882 62.5451 23.6471 61.9839 23.6471C61.4227 23.6471 60.9677 24.0882 60.9677 24.6324C60.9677 25.1765 61.4227 25.6176 61.9839 25.6176C62.5451 25.6176 63 25.1765 63 24.6324Z" fill="#5FB961"/>
<path d="M2.03226 18.7206C2.03226 18.1764 1.57732 17.7353 1.01613 17.7353C0.454936 17.7353 0 18.1764 0 18.7206C0 19.2648 0.454936 19.7059 1.01613 19.7059C1.57732 19.7059 2.03226 19.2648 2.03226 18.7206Z" fill="#5FB961"/>
<path d="M8.12903 18.7206C8.12903 18.1764 7.6741 17.7353 7.1129 17.7353C6.55171 17.7353 6.09677 18.1764 6.09677 18.7206C6.09677 19.2648 6.55171 19.7059 7.1129 19.7059C7.6741 19.7059 8.12903 19.2648 8.12903 18.7206Z" fill="#5FB961"/>
<path d="M14.2258 18.7206C14.2258 18.1764 13.7709 17.7353 13.2097 17.7353C12.6485 17.7353 12.1935 18.1764 12.1935 18.7206C12.1935 19.2648 12.6485 19.7059 13.2097 19.7059C13.7709 19.7059 14.2258 19.2648 14.2258 18.7206Z" fill="#5FB961"/>
<path d="M20.3226 18.7206C20.3226 18.1764 19.8676 17.7353 19.3065 17.7353C18.7453 17.7353 18.2903 18.1764 18.2903 18.7206C18.2903 19.2648 18.7453 19.7059 19.3065 19.7059C19.8676 19.7059 20.3226 19.2648 20.3226 18.7206Z" fill="#5FB961"/>
<path d="M26.4194 18.7206C26.4194 18.1764 25.9644 17.7353 25.4032 17.7353C24.842 17.7353 24.3871 18.1764 24.3871 18.7206C24.3871 19.2648 24.842 19.7059 25.4032 19.7059C25.9644 19.7059 26.4194 19.2648 26.4194 18.7206Z" fill="#5FB961"/>
<path d="M32.5161 18.7206C32.5161 18.1764 32.0612 17.7353 31.5 17.7353C30.9388 17.7353 30.4839 18.1764 30.4839 18.7206C30.4839 19.2648 30.9388 19.7059 31.5 19.7059C32.0612 19.7059 32.5161 19.2648 32.5161 18.7206Z" fill="#5FB961"/>
<path d="M38.6129 18.7206C38.6129 18.1764 38.158 17.7353 37.5968 17.7353C37.0356 17.7353 36.5806 18.1764 36.5806 18.7206C36.5806 19.2648 37.0356 19.7059 37.5968 19.7059C38.158 19.7059 38.6129 19.2648 38.6129 18.7206Z" fill="#5FB961"/>
<path d="M44.7097 18.7206C44.7097 18.1764 44.2547 17.7353 43.6935 17.7353C43.1324 17.7353 42.6774 18.1764 42.6774 18.7206C42.6774 19.2648 43.1324 19.7059 43.6935 19.7059C44.2547 19.7059 44.7097 19.2648 44.7097 18.7206Z" fill="#5FB961"/>
<path d="M50.8065 18.7206C50.8065 18.1764 50.3515 17.7353 49.7903 17.7353C49.2291 17.7353 48.7742 18.1764 48.7742 18.7206C48.7742 19.2648 49.2291 19.7059 49.7903 19.7059C50.3515 19.7059 50.8065 19.2648 50.8065 18.7206Z" fill="#5FB961"/>
<path d="M56.9032 18.7206C56.9032 18.1764 56.4483 17.7353 55.8871 17.7353C55.3259 17.7353 54.871 18.1764 54.871 18.7206C54.871 19.2648 55.3259 19.7059 55.8871 19.7059C56.4483 19.7059 56.9032 19.2648 56.9032 18.7206Z" fill="#5FB961"/>
<path d="M63 18.7206C63 18.1764 62.5451 17.7353 61.9839 17.7353C61.4227 17.7353 60.9677 18.1764 60.9677 18.7206C60.9677 19.2648 61.4227 19.7059 61.9839 19.7059C62.5451 19.7059 63 19.2648 63 18.7206Z" fill="#5FB961"/>
<path d="M2.03226 12.8088C2.03226 12.2647 1.57732 11.8235 1.01613 11.8235C0.454936 11.8235 0 12.2647 0 12.8088C0 13.353 0.454936 13.7941 1.01613 13.7941C1.57732 13.7941 2.03226 13.353 2.03226 12.8088Z" fill="#5FB961"/>
<path d="M8.12903 12.8088C8.12903 12.2647 7.6741 11.8235 7.1129 11.8235C6.55171 11.8235 6.09677 12.2647 6.09677 12.8088C6.09677 13.353 6.55171 13.7941 7.1129 13.7941C7.6741 13.7941 8.12903 13.353 8.12903 12.8088Z" fill="#5FB961"/>
<path d="M14.2258 12.8088C14.2258 12.2647 13.7709 11.8235 13.2097 11.8235C12.6485 11.8235 12.1935 12.2647 12.1935 12.8088C12.1935 13.353 12.6485 13.7941 13.2097 13.7941C13.7709 13.7941 14.2258 13.353 14.2258 12.8088Z" fill="#5FB961"/>
<path d="M20.3226 12.8088C20.3226 12.2647 19.8676 11.8235 19.3065 11.8235C18.7453 11.8235 18.2903 12.2647 18.2903 12.8088C18.2903 13.353 18.7453 13.7941 19.3065 13.7941C19.8676 13.7941 20.3226 13.353 20.3226 12.8088Z" fill="#5FB961"/>
<path d="M26.4194 12.8088C26.4194 12.2647 25.9644 11.8235 25.4032 11.8235C24.842 11.8235 24.3871 12.2647 24.3871 12.8088C24.3871 13.353 24.842 13.7941 25.4032 13.7941C25.9644 13.7941 26.4194 13.353 26.4194 12.8088Z" fill="#5FB961"/>
<path d="M32.5161 12.8088C32.5161 12.2647 32.0612 11.8235 31.5 11.8235C30.9388 11.8235 30.4839 12.2647 30.4839 12.8088C30.4839 13.353 30.9388 13.7941 31.5 13.7941C32.0612 13.7941 32.5161 13.353 32.5161 12.8088Z" fill="#5FB961"/>
<path d="M38.6129 12.8088C38.6129 12.2647 38.158 11.8235 37.5968 11.8235C37.0356 11.8235 36.5806 12.2647 36.5806 12.8088C36.5806 13.353 37.0356 13.7941 37.5968 13.7941C38.158 13.7941 38.6129 13.353 38.6129 12.8088Z" fill="#5FB961"/>
<path d="M44.7097 12.8088C44.7097 12.2647 44.2547 11.8235 43.6935 11.8235C43.1324 11.8235 42.6774 12.2647 42.6774 12.8088C42.6774 13.353 43.1324 13.7941 43.6935 13.7941C44.2547 13.7941 44.7097 13.353 44.7097 12.8088Z" fill="#5FB961"/>
<path d="M50.8065 12.8088C50.8065 12.2647 50.3515 11.8235 49.7903 11.8235C49.2291 11.8235 48.7742 12.2647 48.7742 12.8088C48.7742 13.353 49.2291 13.7941 49.7903 13.7941C50.3515 13.7941 50.8065 13.353 50.8065 12.8088Z" fill="#5FB961"/>
<path d="M56.9032 12.8088C56.9032 12.2647 56.4483 11.8235 55.8871 11.8235C55.3259 11.8235 54.871 12.2647 54.871 12.8088C54.871 13.353 55.3259 13.7941 55.8871 13.7941C56.4483 13.7941 56.9032 13.353 56.9032 12.8088Z" fill="#5FB961"/>
<path d="M63 12.8088C63 12.2647 62.5451 11.8235 61.9839 11.8235C61.4227 11.8235 60.9677 12.2647 60.9677 12.8088C60.9677 13.353 61.4227 13.7941 61.9839 13.7941C62.5451 13.7941 63 13.353 63 12.8088Z" fill="#5FB961"/>
<path d="M2.03226 6.89706C2.03226 6.3529 1.57732 5.91176 1.01613 5.91176C0.454936 5.91176 0 6.3529 0 6.89706C0 7.44122 0.454936 7.88235 1.01613 7.88235C1.57732 7.88235 2.03226 7.44122 2.03226 6.89706Z" fill="#5FB961"/>
<path d="M8.12903 6.89706C8.12903 6.3529 7.6741 5.91176 7.1129 5.91176C6.55171 5.91176 6.09677 6.3529 6.09677 6.89706C6.09677 7.44122 6.55171 7.88235 7.1129 7.88235C7.6741 7.88235 8.12903 7.44122 8.12903 6.89706Z" fill="#5FB961"/>
<path d="M14.2258 6.89706C14.2258 6.3529 13.7709 5.91176 13.2097 5.91176C12.6485 5.91176 12.1935 6.3529 12.1935 6.89706C12.1935 7.44122 12.6485 7.88235 13.2097 7.88235C13.7709 7.88235 14.2258 7.44122 14.2258 6.89706Z" fill="#5FB961"/>
<path d="M20.3226 6.89706C20.3226 6.3529 19.8676 5.91176 19.3065 5.91176C18.7453 5.91176 18.2903 6.3529 18.2903 6.89706C18.2903 7.44122 18.7453 7.88235 19.3065 7.88235C19.8676 7.88235 20.3226 7.44122 20.3226 6.89706Z" fill="#5FB961"/>
<path d="M26.4194 6.89706C26.4194 6.3529 25.9644 5.91176 25.4032 5.91176C24.842 5.91176 24.3871 6.3529 24.3871 6.89706C24.3871 7.44122 24.842 7.88235 25.4032 7.88235C25.9644 7.88235 26.4194 7.44122 26.4194 6.89706Z" fill="#5FB961"/>
<path d="M32.5161 6.89706C32.5161 6.3529 32.0612 5.91176 31.5 5.91176C30.9388 5.91176 30.4839 6.3529 30.4839 6.89706C30.4839 7.44122 30.9388 7.88235 31.5 7.88235C32.0612 7.88235 32.5161 7.44122 32.5161 6.89706Z" fill="#5FB961"/>
<path d="M38.6129 6.89706C38.6129 6.3529 38.158 5.91176 37.5968 5.91176C37.0356 5.91176 36.5806 6.3529 36.5806 6.89706C36.5806 7.44122 37.0356 7.88235 37.5968 7.88235C38.158 7.88235 38.6129 7.44122 38.6129 6.89706Z" fill="#5FB961"/>
<path d="M44.7097 6.89706C44.7097 6.3529 44.2547 5.91176 43.6935 5.91176C43.1324 5.91176 42.6774 6.3529 42.6774 6.89706C42.6774 7.44122 43.1324 7.88235 43.6935 7.88235C44.2547 7.88235 44.7097 7.44122 44.7097 6.89706Z" fill="#5FB961"/>
<path d="M50.8065 6.89706C50.8065 6.3529 50.3515 5.91176 49.7903 5.91176C49.2291 5.91176 48.7742 6.3529 48.7742 6.89706C48.7742 7.44122 49.2291 7.88235 49.7903 7.88235C50.3515 7.88235 50.8065 7.44122 50.8065 6.89706Z" fill="#5FB961"/>
<path d="M56.9032 6.89706C56.9032 6.3529 56.4483 5.91176 55.8871 5.91176C55.3259 5.91176 54.871 6.3529 54.871 6.89706C54.871 7.44122 55.3259 7.88235 55.8871 7.88235C56.4483 7.88235 56.9032 7.44122 56.9032 6.89706Z" fill="#5FB961"/>
<path d="M63 6.89706C63 6.3529 62.5451 5.91176 61.9839 5.91176C61.4227 5.91176 60.9677 6.3529 60.9677 6.89706C60.9677 7.44122 61.4227 7.88235 61.9839 7.88235C62.5451 7.88235 63 7.44122 63 6.89706Z" fill="#5FB961"/>
<path d="M2.03226 0.985283C2.03226 0.441116 1.57732 0 1.01613 0C0.454936 0 0 0.441116 0 0.985283C0 1.52945 0.454936 1.97058 1.01613 1.97058C1.57732 1.97058 2.03226 1.52945 2.03226 0.985283Z" fill="#5FB961"/>
<path d="M8.12903 0.985283C8.12903 0.441116 7.6741 0 7.1129 0C6.55171 0 6.09677 0.441116 6.09677 0.985283C6.09677 1.52945 6.55171 1.97058 7.1129 1.97058C7.6741 1.97058 8.12903 1.52945 8.12903 0.985283Z" fill="#5FB961"/>
<path d="M14.2258 0.985283C14.2258 0.441116 13.7709 0 13.2097 0C12.6485 0 12.1935 0.441116 12.1935 0.985283C12.1935 1.52945 12.6485 1.97058 13.2097 1.97058C13.7709 1.97058 14.2258 1.52945 14.2258 0.985283Z" fill="#5FB961"/>
<path d="M20.3226 0.985283C20.3226 0.441116 19.8676 0 19.3065 0C18.7453 0 18.2903 0.441116 18.2903 0.985283C18.2903 1.52945 18.7453 1.97058 19.3065 1.97058C19.8676 1.97058 20.3226 1.52945 20.3226 0.985283Z" fill="#5FB961"/>
<path d="M26.4194 0.985283C26.4194 0.441116 25.9644 0 25.4032 0C24.842 0 24.3871 0.441116 24.3871 0.985283C24.3871 1.52945 24.842 1.97058 25.4032 1.97058C25.9644 1.97058 26.4194 1.52945 26.4194 0.985283Z" fill="#5FB961"/>
<path d="M32.5161 0.985283C32.5161 0.441116 32.0612 0 31.5 0C30.9388 0 30.4839 0.441116 30.4839 0.985283C30.4839 1.52945 30.9388 1.97058 31.5 1.97058C32.0612 1.97058 32.5161 1.52945 32.5161 0.985283Z" fill="#5FB961"/>
<path d="M38.6129 0.985283C38.6129 0.441116 38.158 0 37.5968 0C37.0356 0 36.5806 0.441116 36.5806 0.985283C36.5806 1.52945 37.0356 1.97058 37.5968 1.97058C38.158 1.97058 38.6129 1.52945 38.6129 0.985283Z" fill="#5FB961"/>
<path d="M44.7097 0.985283C44.7097 0.441116 44.2547 0 43.6935 0C43.1324 0 42.6774 0.441116 42.6774 0.985283C42.6774 1.52945 43.1324 1.97058 43.6935 1.97058C44.2547 1.97058 44.7097 1.52945 44.7097 0.985283Z" fill="#5FB961"/>
<path d="M50.8065 0.985283C50.8065 0.441116 50.3515 0 49.7903 0C49.2291 0 48.7742 0.441116 48.7742 0.985283C48.7742 1.52945 49.2291 1.97058 49.7903 1.97058C50.3515 1.97058 50.8065 1.52945 50.8065 0.985283Z" fill="#5FB961"/>
<path d="M56.9032 0.985283C56.9032 0.441116 56.4483 0 55.8871 0C55.3259 0 54.871 0.441116 54.871 0.985283C54.871 1.52945 55.3259 1.97058 55.8871 1.97058C56.4483 1.97058 56.9032 1.52945 56.9032 0.985283Z" fill="#5FB961"/>
<path d="M63 0.985283C63 0.441116 62.5451 0 61.9839 0C61.4227 0 60.9677 0.441116 60.9677 0.985283C60.9677 1.52945 61.4227 1.97058 61.9839 1.97058C62.5451 1.97058 63 1.52945 63 0.985283Z" fill="#5FB961"/>
</svg>
