<svg width="559" height="395" viewBox="0 0 559 395" fill="none" xmlns="http://www.w3.org/2000/svg">
<g clip-path="url(#clip0_1_1618)">
<path d="M285.493 394.163C302.306 394.163 315.935 380.497 315.935 363.638C315.935 346.78 302.306 333.114 285.493 333.114C268.68 333.114 255.05 346.78 255.05 363.638C255.05 380.497 268.68 394.163 285.493 394.163Z" fill="#F9F8FE"/>
<path d="M467.358 392.448C484.389 387.319 502.495 381.972 516.001 369.78C528.071 358.885 536.219 342.249 531.219 325.91C526.229 309.605 511.283 298.732 495.852 293.325C487.1 290.258 477.943 288.556 468.79 287.22C458.84 285.767 448.846 284.576 438.857 283.431C398.41 278.792 357.81 275.958 317.058 274.93C296.95 274.422 276.845 274.434 256.734 274.727C238.774 274.988 219.858 274.982 203.196 267.327C190.239 261.375 178.479 250.546 174.869 236.316C170.702 219.89 178.388 203.162 189.415 191.265C195.227 184.994 202.021 179.716 209.028 174.863C216.631 169.598 224.498 164.706 232.536 160.14C248.366 151.15 264.917 143.499 282.016 137.267C290.451 134.192 299.011 131.539 307.645 129.091C314.936 127.024 322.25 124.955 329.296 122.139C342.918 116.695 355.875 107.474 359.338 92.3564C362.621 78.0289 357.086 62.4752 347.383 51.8316C336.157 39.5176 319.231 34.1196 303.003 33.2462C284.785 32.2657 266.987 36.8375 249.863 42.6396C231.6 48.8281 213.73 55.9438 195.081 60.9564C176.588 65.9222 157.737 69.4358 138.699 71.4651C129.38 72.4602 119.779 73.5837 110.404 72.822C102.546 72.1835 94.7295 69.8666 88.9389 64.2754C83.9738 59.4812 81.0161 52.8924 82.0329 45.9393C82.2176 44.6764 84.131 45.2133 83.9474 46.4685C82.7096 54.9324 88.4475 62.7318 95.5183 66.7269C103.69 71.3443 113.634 71.3506 122.732 70.8225C142.46 69.6278 162.054 66.7877 181.311 62.3317C200.233 57.9981 218.479 51.8032 236.705 45.1855C254.015 38.9005 271.712 32.7662 290.205 31.4049C306.251 30.2237 323.13 32.5676 337.109 40.9757C349.394 48.3653 358.428 60.6886 361.307 74.83C364.12 88.6487 360.224 102.557 349.792 112.201C338.99 122.185 324.18 126.454 310.378 130.385C292.872 135.371 275.741 141.2 259.16 148.768C242.353 156.418 226.234 165.504 210.981 175.927C196.259 186.015 181.73 198.708 177.073 216.704C174.904 225.087 175.305 233.978 178.934 241.897C182.161 248.937 187.475 254.859 193.667 259.427C208.438 270.326 227.056 272.564 244.899 272.786C264.939 273.036 284.979 272.358 305.026 272.688C345.88 273.36 386.651 275.854 427.338 280.168C437.533 281.25 447.715 282.446 457.884 283.756C467.031 284.935 476.209 286.106 485.202 288.199C501.193 291.92 516.752 299.076 526.691 312.67C531.102 318.562 533.835 325.545 534.598 332.873C535.293 340.52 533.426 348.181 529.978 354.984C522.346 370.041 508.051 379.618 492.869 385.91C484.738 389.28 476.303 391.833 467.885 394.368C466.659 394.737 466.135 392.816 467.358 392.448Z" fill="#F2F2F2"/>
<path d="M83.3152 62.0442C92.0871 62.0442 99.1982 54.914 99.1982 46.1184C99.1982 37.3228 92.0871 30.1926 83.3152 30.1926C74.5432 30.1926 67.4321 37.3228 67.4321 46.1184C67.4321 54.914 74.5432 62.0442 83.3152 62.0442Z" fill="#F2F2F2"/>
<path d="M193.504 92.2368C202.276 92.2368 209.387 85.1066 209.387 76.311C209.387 67.5155 202.276 60.3853 193.504 60.3853C184.732 60.3853 177.621 67.5155 177.621 76.311C177.621 85.1066 184.732 92.2368 193.504 92.2368Z" fill="#F2F2F2"/>
<path d="M286.816 31.8515C295.588 31.8515 302.699 24.7213 302.699 15.9258C302.699 7.13021 295.588 0 286.816 0C278.044 0 270.933 7.13021 270.933 15.9258C270.933 24.7213 278.044 31.8515 286.816 31.8515Z" fill="#F2F2F2"/>
<path d="M345.054 99.5361C353.826 99.5361 360.937 92.4059 360.937 83.6103C360.937 74.8148 353.826 67.6846 345.054 67.6846C336.282 67.6846 329.171 74.8148 329.171 83.6103C329.171 92.4059 336.282 99.5361 345.054 99.5361Z" fill="#F2F2F2"/>
<path d="M266.301 177.838C275.072 177.838 282.184 170.708 282.184 161.912C282.184 153.116 275.072 145.986 266.301 145.986C257.529 145.986 250.417 153.116 250.417 161.912C250.417 170.708 257.529 177.838 266.301 177.838Z" fill="#F2F2F2"/>
<path d="M166.37 215.661C175.142 215.661 182.253 208.531 182.253 199.736C182.253 190.94 175.142 183.81 166.37 183.81C157.598 183.81 150.487 190.94 150.487 199.736C150.487 208.531 157.598 215.661 166.37 215.661Z" fill="#F2F2F2"/>
<path d="M272.257 274.72C281.029 274.72 288.14 267.589 288.14 258.794C288.14 249.998 281.029 242.868 272.257 242.868C263.485 242.868 256.374 249.998 256.374 258.794C256.374 267.589 263.485 274.72 272.257 274.72Z" fill="#F2F2F2"/>
<path d="M386.085 307.898C394.857 307.898 401.968 300.768 401.968 291.973C401.968 283.177 394.857 276.047 386.085 276.047C377.313 276.047 370.202 283.177 370.202 291.973C370.202 300.768 377.313 307.898 386.085 307.898Z" fill="#F2F2F2"/>
<path d="M519.106 300.599C527.878 300.599 534.989 293.469 534.989 284.673C534.989 275.878 527.878 268.747 519.106 268.747C510.334 268.747 503.223 275.878 503.223 284.673C503.223 293.469 510.334 300.599 519.106 300.599Z" fill="#F2F2F2"/>
<path d="M282.232 45.1253C234.654 45.4623 195.698 84.2297 195.022 131.932C195.016 132.372 195.013 135.469 195.014 139.519C195.014 145.458 197.367 151.153 201.555 155.352C205.743 159.552 211.422 161.911 217.345 161.912C220.281 161.911 223.188 161.331 225.9 160.203C228.612 159.076 231.076 157.423 233.151 155.34C235.226 153.258 236.871 150.785 237.993 148.065C239.115 145.344 239.691 142.429 239.688 139.485C239.686 136.73 239.684 134.823 239.684 134.706C239.683 127.333 241.595 120.088 245.234 113.681C248.872 107.275 254.111 101.928 260.435 98.168C266.759 94.4075 273.951 92.3625 281.302 92.2342C288.653 92.1058 295.911 93.8985 302.362 97.4358C308.813 100.973 314.234 106.133 318.093 112.409C321.952 118.684 324.115 125.859 324.369 133.227C324.624 140.595 322.961 147.902 319.544 154.43C316.128 160.958 311.076 166.482 304.884 170.458L304.892 170.468C304.892 170.468 273.107 190.985 263.417 219.131L263.425 219.133C261.721 224.899 260.858 230.882 260.862 236.896C260.862 239.368 261.007 260.998 261.287 278.554C261.385 284.611 263.854 290.387 268.161 294.635C272.469 298.884 278.269 301.264 284.311 301.263C287.347 301.262 290.353 300.66 293.156 299.491C295.959 298.322 298.503 296.608 300.644 294.449C302.784 292.29 304.477 289.728 305.625 286.91C306.774 284.092 307.356 281.074 307.337 278.03C307.24 261.953 307.187 243.232 307.187 241.873C307.187 224.59 323.815 207.37 337.473 196.141C353.201 183.21 364.519 165.588 369.065 145.71C370.071 141.617 370.626 137.426 370.719 133.212C370.719 121.591 368.426 110.084 363.971 99.3552C359.516 88.6263 352.988 78.8873 344.763 70.6993C336.538 62.5113 326.778 56.0362 316.046 51.647C305.314 47.2578 293.822 45.0414 282.232 45.1253Z" fill="#F9F8FE"/>
<path d="M558.212 395H0.788149C0.579557 394.999 0.37972 394.916 0.232437 394.768C0.0851538 394.62 0.00244141 394.419 0.00244141 394.21C0.00244141 394.001 0.0851538 393.8 0.232437 393.652C0.37972 393.504 0.579557 393.42 0.788149 393.42H558.212C558.421 393.42 558.622 393.503 558.769 393.651C558.917 393.799 559 394 559 394.21C559 394.419 558.917 394.62 558.769 394.769C558.622 394.917 558.421 395 558.212 395Z" fill="#3F3D56"/>
<path d="M415.903 181.153C426.868 181.153 435.756 172.24 435.756 161.246C435.756 150.251 426.868 141.339 415.903 141.339C404.938 141.339 396.049 150.251 396.049 161.246C396.049 172.24 404.938 181.153 415.903 181.153Z" fill="#2F2E41"/>
<path d="M379.215 386.286H371.102L367.242 354.906H379.217L379.215 386.286Z" fill="#A0616A"/>
<path d="M365.307 383.961H380.954V393.839H355.455C355.455 392.542 355.709 391.258 356.205 390.059C356.7 388.861 357.425 387.771 358.34 386.854C359.255 385.937 360.341 385.209 361.536 384.713C362.732 384.216 364.013 383.961 365.307 383.961Z" fill="#2F2E41"/>
<path d="M442.085 386.286H433.973L430.112 354.906H442.087L442.085 386.286Z" fill="#A0616A"/>
<path d="M428.177 383.961H443.824V393.839H418.325C418.325 392.542 418.58 391.258 419.075 390.059C419.57 388.861 420.295 387.771 421.21 386.854C422.125 385.937 423.211 385.209 424.407 384.713C425.602 384.216 426.883 383.961 428.177 383.961Z" fill="#2F2E41"/>
<path d="M412.886 181.269C421.863 181.269 429.14 173.972 429.14 164.971C429.14 155.97 421.863 148.673 412.886 148.673C403.909 148.673 396.631 155.97 396.631 164.971C396.631 173.972 403.909 181.269 412.886 181.269Z" fill="#A0616A"/>
<path d="M422.574 233.847L429.847 217.092C431.613 213.161 432.12 208.778 431.296 204.547C430.472 200.315 428.359 196.445 425.248 193.469C424.609 192.835 423.93 192.244 423.216 191.697C419.627 188.882 415.205 187.348 410.648 187.337C407.585 187.349 404.56 188.024 401.781 189.315C401.542 189.421 401.311 189.534 401.072 189.647C400.616 189.866 400.166 190.105 399.729 190.35C396.88 191.99 394.455 194.279 392.65 197.031C390.846 199.784 389.711 202.923 389.339 206.196L386.129 233.164C385.322 235.281 356.52 311.724 366.593 370.086C366.7 370.709 367.003 371.281 367.458 371.72C367.913 372.158 368.496 372.439 369.121 372.521L379.333 373.914C380.078 374.017 380.835 373.832 381.45 373.397C382.065 372.963 382.493 372.31 382.648 371.572L399.782 289.68C399.889 289.172 400.162 288.713 400.56 288.379C400.957 288.045 401.454 287.853 401.972 287.836C402.491 287.818 403 287.975 403.418 288.282C403.837 288.589 404.141 289.027 404.282 289.528L428.49 375.646C428.663 376.272 429.035 376.824 429.55 377.217C430.066 377.61 430.695 377.823 431.343 377.823C431.536 377.822 431.729 377.804 431.919 377.77L444.393 375.361C445.118 375.225 445.767 374.822 446.211 374.232C446.656 373.642 446.864 372.906 446.796 372.169C444.963 351.671 435.221 248.997 422.574 233.847Z" fill="#2F2E41"/>
<path d="M349.717 178.535C349.604 179.503 349.705 180.485 350.012 181.411C350.318 182.337 350.823 183.184 351.492 183.893C352.16 184.602 352.976 185.155 353.88 185.514C354.785 185.872 355.757 186.028 356.728 185.969L365.814 207.862L372.687 197.646L363.005 178.423C362.799 176.793 362.003 175.297 360.769 174.216C359.536 173.136 357.95 172.547 356.312 172.561C354.674 172.574 353.098 173.19 351.882 174.291C350.667 175.392 349.897 176.902 349.717 178.535Z" fill="#A0616A"/>
<path d="M411.985 255.892C412.951 255.776 413.879 255.449 414.706 254.934C415.532 254.42 416.236 253.729 416.768 252.913C417.3 252.096 417.646 251.172 417.783 250.206C417.92 249.24 417.844 248.256 417.561 247.323L436.677 233.362L425.168 229.041L408.78 242.96C407.248 243.542 405.982 244.666 405.221 246.121C404.461 247.575 404.259 249.259 404.654 250.853C405.049 252.447 406.013 253.84 407.365 254.769C408.716 255.698 410.359 256.097 411.985 255.892Z" fill="#A0616A"/>
<path d="M380.822 222.457C380.089 222.456 379.358 222.384 378.639 222.241C376.9 221.91 375.269 221.154 373.891 220.041C372.512 218.928 371.427 217.493 370.732 215.86L358.003 200.297C357.734 199.968 357.538 199.586 357.429 199.174C357.319 198.763 357.298 198.333 357.368 197.914C357.438 197.494 357.596 197.094 357.832 196.74C358.069 196.387 358.377 196.088 358.738 195.864L367.795 190.243C368.129 190.036 368.501 189.897 368.889 189.834C369.277 189.771 369.674 189.786 370.057 189.878C370.439 189.97 370.8 190.137 371.117 190.37C371.435 190.602 371.704 190.895 371.908 191.232L380.879 206.053L398.06 193.321C399.428 192.602 401.009 192.4 402.513 192.753C404.017 193.105 405.344 193.989 406.252 195.242C407.16 196.494 407.589 198.033 407.459 199.576C407.329 201.12 406.65 202.564 405.545 203.647L388.397 219.332C386.382 221.335 383.659 222.458 380.822 222.457Z" fill="#2F2E41"/>
<path d="M427.246 245.863C427.223 245.863 427.2 245.863 427.176 245.862C426.759 245.852 426.348 245.754 425.971 245.575C425.593 245.395 425.258 245.138 424.985 244.82L416.934 235.402C416.66 235.081 416.456 234.706 416.338 234.3C416.219 233.895 416.187 233.469 416.245 233.051C416.302 232.632 416.448 232.231 416.672 231.873C416.895 231.515 417.192 231.208 417.543 230.974L432.62 220.896L418.961 204.431C418.167 203.103 417.875 201.533 418.14 200.007C418.405 198.481 419.209 197.102 420.404 196.121C421.599 195.14 423.107 194.623 424.651 194.665C426.195 194.706 427.672 195.303 428.814 196.347L445.414 212.613C446.72 213.81 447.717 215.307 448.32 216.975C448.923 218.643 449.112 220.433 448.873 222.191C448.634 223.949 447.973 225.623 446.947 227.068C445.921 228.514 444.56 229.688 442.981 230.49L429.414 244.925C429.135 245.221 428.799 245.457 428.427 245.618C428.054 245.78 427.652 245.863 427.246 245.863Z" fill="#2F2E41"/>
<path d="M408.753 211.159C408.624 211.159 408.495 211.15 408.366 211.134C407.806 211.066 407.276 210.838 406.841 210.477C406.406 210.116 406.083 209.637 405.911 209.098L399.861 190.498C399.709 190.028 399.732 189.519 399.926 189.064C400.12 188.61 400.472 188.241 400.916 188.027L401.112 187.934C401.29 187.849 401.466 187.765 401.646 187.684C404.467 186.373 407.539 185.688 410.648 185.678C414.686 185.686 418.633 186.875 422.006 189.1C422.458 189.402 422.774 189.87 422.885 190.403C422.997 190.936 422.895 191.491 422.602 191.95L411.252 209.779C410.986 210.202 410.617 210.551 410.18 210.792C409.743 211.033 409.252 211.16 408.753 211.159Z" fill="#E6E6E6"/>
<path d="M431.556 152.359C435.144 152.359 438.052 149.442 438.052 145.844C438.052 142.247 435.144 139.33 431.556 139.33C427.968 139.33 425.059 142.247 425.059 145.844C425.059 149.442 427.968 152.359 431.556 152.359Z" fill="#2F2E41"/>
<path d="M409.285 138.684C404.721 138.684 400.345 140.502 397.118 143.737C393.891 146.973 392.078 151.361 392.078 155.937V163.236H401.032L405.314 155.937L406.599 163.236H433.771L426.491 155.937C426.491 151.361 424.679 146.973 421.452 143.737C418.225 140.502 413.848 138.684 409.285 138.684Z" fill="#2F2E41"/>
<path d="M434.895 141.382C435.613 139.13 437.1 137.203 439.095 135.942C441.09 134.68 443.465 134.164 445.801 134.484C449.942 135.178 453.215 138.515 455.165 142.242C457.116 145.969 458.016 150.14 459.328 154.139C460.639 158.137 462.498 162.157 465.809 164.745C469.119 167.333 474.198 168.035 477.449 165.373C477.078 168.148 475.846 170.735 473.928 172.769C472.009 174.804 469.501 176.182 466.759 176.708C464.017 177.235 461.179 176.884 458.646 175.705C456.114 174.526 454.015 172.579 452.647 170.138C450.932 167.078 450.489 163.491 449.98 160.018C449.472 156.545 448.811 152.951 446.763 150.104C444.715 147.257 440.881 145.397 437.627 146.694L434.895 141.382Z" fill="#2F2E41"/>
<path d="M223.651 151.32C217.728 151.32 212.048 148.96 207.86 144.761C203.672 140.561 201.319 134.866 201.319 128.927C201.319 124.877 201.322 121.78 201.328 121.34C201.516 107.467 205.001 93.8386 211.492 81.5859C200.826 96.2263 194.962 113.828 194.71 131.957C194.704 132.397 194.701 135.494 194.701 139.544C194.702 145.483 197.054 151.178 201.242 155.378C205.43 159.577 211.11 161.937 217.033 161.937C221.9 161.936 226.633 160.341 230.513 157.396C234.394 154.451 237.21 150.316 238.533 145.62C234.444 149.296 229.143 151.327 223.651 151.32Z" fill="#2C2B33"/>
<path d="M283.746 92.3093C290.593 92.6372 297.258 94.6264 303.169 98.1062C309.081 101.586 314.062 106.452 317.684 112.287C321.307 118.123 323.463 124.752 323.967 131.607C324.472 138.461 323.31 145.336 320.58 151.641C324.528 146.993 327.429 141.545 329.087 135.671C330.745 129.796 331.119 123.632 330.186 117.598C329.252 111.565 327.032 105.805 323.677 100.71C320.321 95.6149 315.91 91.3053 310.743 88.0749C305.576 84.8444 299.775 82.769 293.736 81.9902C287.697 81.2114 281.561 81.7475 275.747 83.5619C269.933 85.3764 264.578 88.4265 260.046 92.5043C255.514 96.5821 251.913 101.592 249.487 107.192C253.679 102.246 258.949 98.3326 264.889 95.7523C270.828 93.172 277.28 91.994 283.746 92.3093Z" fill="#2C2B33"/>
<path d="M290.616 290.671C284.574 290.672 278.774 288.292 274.466 284.044C270.159 279.795 267.69 274.019 267.592 267.962C267.312 250.406 267.167 228.776 267.167 226.304C267.163 220.29 268.026 214.308 269.73 208.542L269.722 208.54C270.728 205.646 271.944 202.829 273.358 200.112C269.016 205.914 265.56 212.333 263.104 219.157L263.112 219.159C261.408 224.925 260.545 230.908 260.549 236.921C260.549 239.393 260.694 261.023 260.974 278.579C261.072 284.636 263.541 290.412 267.848 294.661C272.156 298.909 277.956 301.289 283.998 301.288C288.98 301.287 293.827 299.667 297.812 296.67C301.798 293.673 304.707 289.461 306.103 284.666C301.87 288.537 296.345 290.679 290.616 290.671Z" fill="#2C2B33"/>
<path d="M83.7437 386.588L91.8566 386.588L95.7168 355.208L83.7417 355.209L83.7437 386.588Z" fill="#FFB8B8"/>
<path d="M107.505 394.141L82.0055 394.143L82.0051 384.264L97.6524 384.263C100.265 384.263 102.771 385.304 104.619 387.156C106.467 389.009 107.505 391.521 107.505 394.141Z" fill="#2F2E41"/>
<path d="M54.625 386.588L62.7379 386.588L66.5982 355.208L54.623 355.209L54.625 386.588Z" fill="#FFB8B8"/>
<path d="M78.3857 394.141L52.8864 394.143L52.886 384.264L68.5333 384.263C71.1462 384.263 73.6521 385.304 75.4998 387.156C77.3475 389.009 78.3856 391.521 78.3857 394.141Z" fill="#2F2E41"/>
<path d="M61.7149 376.937L53.7899 376.519C53.3812 376.498 52.9809 376.395 52.6121 376.217C52.2433 376.04 51.9134 375.79 51.6414 375.484C51.3694 375.177 51.1608 374.819 51.0277 374.432C50.8945 374.044 50.8395 373.633 50.8658 373.223L60.3378 268.07L103.957 279.872L108.16 278.722L95.0176 371.811C94.9057 372.512 94.5589 373.153 94.0345 373.629C93.5101 374.104 92.8395 374.387 92.1334 374.429L83.5904 374.828C83.1633 374.852 82.7358 374.786 82.3351 374.636C81.9344 374.486 81.5691 374.254 81.2624 373.955C80.9557 373.656 80.7142 373.296 80.5531 372.899C80.3921 372.501 80.315 372.075 80.3268 371.646L81.8747 315.775C81.882 315.517 81.7925 315.265 81.6238 315.07C81.4552 314.874 81.2196 314.749 80.9636 314.719C80.7076 314.689 80.4496 314.757 80.2406 314.908C80.0316 315.059 79.8866 315.283 79.8343 315.536L64.9063 374.47C64.7654 375.169 64.387 375.798 63.8356 376.249C63.2842 376.699 62.5939 376.944 61.8825 376.942C61.827 376.942 61.7711 376.941 61.7149 376.937Z" fill="#2F2E41"/>
<path d="M85.2006 182.031C94.1776 182.031 101.455 174.735 101.455 165.733C101.455 156.732 94.1776 149.435 85.2006 149.435C76.2236 149.435 68.9463 156.732 68.9463 165.733C68.9463 174.735 76.2236 182.031 85.2006 182.031Z" fill="#FFB8B8"/>
<path d="M58.1384 213.616L59.9256 252.281L60.5716 266.348C60.5974 266.96 60.8047 267.551 61.1672 268.044C61.5296 268.538 62.0307 268.912 62.6062 269.118L104.522 284.343C104.86 284.469 105.219 284.532 105.58 284.529C105.993 284.531 106.402 284.45 106.783 284.29C107.163 284.13 107.508 283.894 107.796 283.598C108.084 283.301 108.31 282.95 108.459 282.564C108.609 282.178 108.679 281.766 108.666 281.352L106.948 211.831C106.835 206.127 104.741 200.642 101.027 196.32C97.313 191.998 92.2115 189.111 86.6021 188.157C86.1967 188.095 85.7842 188.033 85.3717 187.978C81.8934 187.545 78.3627 187.881 75.0281 188.964C71.6935 190.046 68.6359 191.848 66.0705 194.242C63.4141 196.692 61.3268 199.697 59.9561 203.045C58.5854 206.393 57.9649 210.002 58.1384 213.616Z" fill="#CCCCCC"/>
<path d="M124.544 276.628C123.553 276.319 122.647 275.783 121.899 275.061C121.152 274.339 120.582 273.452 120.237 272.471C119.892 271.489 119.78 270.44 119.911 269.408C120.042 268.375 120.412 267.388 120.991 266.524L106.777 247.572L119.043 246.811L130.661 264.925C131.904 265.889 132.77 267.261 133.105 268.801C133.44 270.341 133.224 271.951 132.495 273.347C131.765 274.743 130.568 275.837 129.115 276.437C127.661 277.037 126.043 277.105 124.544 276.628Z" fill="#FFB8B8"/>
<path d="M114.55 263.094C114.174 262.941 113.831 262.714 113.543 262.428C113.254 262.141 113.025 261.799 112.869 261.423L91.4543 210.265C91.0341 209.264 90.8149 208.189 90.8092 207.102C90.8035 206.016 91.0114 204.939 91.421 203.933C91.8306 202.927 92.434 202.011 93.1965 201.239C93.9591 200.467 94.8659 199.853 95.8651 199.433C96.8644 199.012 97.9365 198.793 99.0202 198.788C100.104 198.784 101.178 198.993 102.181 199.404C103.184 199.816 104.096 200.422 104.866 201.187C105.635 201.952 106.247 202.862 106.665 203.864L128.08 255.022C128.396 255.781 128.4 256.634 128.089 257.395C127.779 258.157 127.181 258.763 126.425 259.082L116.918 263.083C116.544 263.242 116.142 263.325 115.735 263.327C115.329 263.329 114.926 263.25 114.55 263.094Z" fill="#CCCCCC"/>
<path d="M79.9745 261.29L100.542 221.801C100.939 221.042 101.62 220.471 102.436 220.215C103.251 219.958 104.135 220.036 104.894 220.432L134.748 236.066C135.506 236.464 136.075 237.147 136.331 237.964C136.587 238.782 136.509 239.669 136.114 240.429L115.546 279.918C115.149 280.677 114.468 281.248 113.652 281.504C112.837 281.761 111.953 281.683 111.194 281.287L81.34 265.653C80.5826 265.255 80.0135 264.573 79.7575 263.755C79.5015 262.937 79.5795 262.05 79.9745 261.29Z" fill="#3F3D56"/>
<path d="M93.7685 243.249C93.4028 242.275 92.8152 241.4 92.0524 240.694C91.2896 239.988 90.3729 239.471 89.3752 239.183C88.3776 238.895 87.3268 238.846 86.3066 239.038C85.2865 239.23 84.3251 239.658 83.4995 240.289L63.7923 227.181L63.7588 239.503L82.4782 250.062C83.5115 251.25 84.929 252.035 86.482 252.28C88.035 252.524 89.6244 252.213 90.9713 251.4C92.3183 250.587 93.3368 249.325 93.8483 247.835C94.3598 246.344 94.3315 244.72 93.7685 243.249Z" fill="#FFB8B8"/>
<path d="M68.8518 246.02L52.7459 233.227C51.0035 232.641 49.4292 231.639 48.158 230.308C46.8868 228.977 45.9567 227.357 45.4475 225.586C44.9383 223.815 44.8653 221.947 45.2347 220.142C45.6041 218.336 46.405 216.648 47.5684 215.221L62.1921 196.005C63.2083 194.759 64.6376 193.922 66.2185 193.647C67.7994 193.371 69.4264 193.675 70.8021 194.504C72.1778 195.332 73.2104 196.629 73.711 198.157C74.2115 199.686 74.1467 201.344 73.5284 202.829L61.9577 221.807L78.9618 229.894C79.3572 230.082 79.7083 230.352 79.9919 230.686C80.2756 231.02 80.4852 231.411 80.6071 231.833C80.7289 232.254 80.7602 232.697 80.6989 233.131C80.6375 233.566 80.4849 233.982 80.2511 234.353L73.3871 245.245C73.1551 245.613 72.8486 245.927 72.4876 246.169C72.1266 246.41 71.7191 246.572 71.2914 246.646C71.2744 246.649 71.2573 246.651 71.2403 246.654C70.82 246.718 70.3913 246.694 69.9805 246.585C69.5696 246.476 69.1855 246.284 68.8518 246.02Z" fill="#CCCCCC"/>
<path d="M72.9185 176.647C72.8488 176.442 72.8267 176.224 72.8539 176.01C72.881 175.795 72.9568 175.59 73.0754 175.41C73.194 175.229 73.3522 175.078 73.538 174.968C73.7237 174.858 73.9321 174.793 74.147 174.776C74.5873 174.8 75.0181 174.913 75.4135 175.109C75.8089 175.305 76.1606 175.579 76.4475 175.914C77.0358 176.594 77.7206 177.184 78.48 177.664C79.2663 178.062 80.3327 178.005 80.7809 177.247C81.2019 176.536 80.9134 175.583 80.6586 174.757C80.0102 172.654 79.6474 170.473 79.58 168.273C79.5065 165.818 79.852 163.255 81.2078 161.34C82.9575 158.869 86.0861 157.93 89.047 157.998C92.0079 158.066 94.9207 158.983 97.8536 159.562C98.866 159.762 100.056 159.864 100.733 159.078C101.453 158.241 101.189 156.887 100.883 155.757C100.088 152.826 99.2448 149.795 97.3982 147.428C95.4016 144.968 92.5495 143.358 89.4164 142.922C86.4085 142.549 83.355 142.896 80.5071 143.936C75.8672 145.403 71.7844 148.255 68.8048 152.111C65.7332 156.211 64.4059 161.365 65.1132 166.444C65.8042 170.868 68.1421 174.864 71.6556 177.628L72.9185 176.647Z" fill="#2F2E41"/>
<path d="M278.785 386.718C274.461 384.829 270.633 381.958 267.605 378.333C264.576 374.707 262.429 370.425 261.334 365.824C260.238 361.224 260.224 356.432 261.292 351.825C262.36 347.218 264.481 342.923 267.488 339.279C264.002 341.832 261.097 345.099 258.966 348.863C256.835 352.627 255.527 356.803 255.128 361.113C254.73 365.422 255.25 369.768 256.654 373.861C258.059 377.954 260.315 381.701 263.274 384.852C266.233 388.004 269.827 390.488 273.817 392.141C277.806 393.793 282.101 394.576 286.416 394.437C290.73 394.298 294.966 393.241 298.842 391.335C302.718 389.429 306.145 386.719 308.896 383.383C304.605 386.528 299.567 388.491 294.284 389.076C289.001 389.661 283.657 388.848 278.785 386.718Z" fill="#3F3D56"/>
</g>
<defs>
<clipPath id="clip0_1_1618">
<rect width="559" height="395" fill="white"/>
</clipPath>
</defs>
</svg>
