<svg width="44" height="42" viewBox="0 0 44 42" fill="none" xmlns="http://www.w3.org/2000/svg">
<path d="M21.1637 28.3333V21.6667H35.687V36.6667C33.6123 38.3333 27.8029 41.6667 21.1637 41.6667C-6.63809 41.6667 -7.468 1.25 21.1637 1.25V17.0833C3.73571 18.75 8.71513 39.1667 21.1637 39.1667C29.8777 39.1667 33.1973 32.0833 29.4627 28.3333C26.4751 25.3333 22.6853 27.0833 21.1637 28.3333Z" fill="#5FB961"/>
<path d="M29.4628 6.66667C21.9937 9.58333 24.8983 17.9167 29.8778 20C29.3245 17.5 29.2138 12.1667 33.1974 10.8333C38.1768 9.16667 44.4011 6.66667 43.9861 0C40.2516 4.16667 36.9319 3.75 29.4628 6.66667Z" fill="#5FB961"/>
</svg>
