<svg width="28" height="28" viewBox="0 0 28 28" fill="none" xmlns="http://www.w3.org/2000/svg">
<circle cx="14" cy="14" r="14" fill="#D6F1DA"/>
<path d="M14.2742 6.03906C10.036 6.03906 6.58789 9.48717 6.58789 13.7253C6.58789 17.9635 10.036 21.4116 14.2742 21.4116C18.5123 21.4116 21.9604 17.9635 21.9604 13.7253C21.9604 9.48717 18.5123 6.03906 14.2742 6.03906ZM18.2744 11.1493L13.3078 17.0618C13.2534 17.1267 13.1856 17.1792 13.1091 17.2156C13.0326 17.252 12.9491 17.2715 12.8644 17.2728H12.8544C12.7715 17.2728 12.6896 17.2554 12.6139 17.2216C12.5382 17.1879 12.4705 17.1386 12.415 17.077L10.2865 14.712C10.2325 14.6547 10.1904 14.5871 10.1629 14.5133C10.1353 14.4395 10.1227 14.3609 10.126 14.2821C10.1292 14.2034 10.1481 14.1261 10.1817 14.0548C10.2152 13.9835 10.2627 13.9196 10.3212 13.8669C10.3798 13.8142 10.4483 13.7737 10.5228 13.7479C10.5972 13.722 10.6761 13.7113 10.7547 13.7164C10.8333 13.7214 10.9102 13.7421 10.9807 13.7773C11.0512 13.8125 11.114 13.8614 11.1653 13.9212L12.8389 15.7807L17.369 10.3888C17.4706 10.2713 17.6144 10.1986 17.7692 10.1862C17.9241 10.1739 18.0775 10.223 18.1965 10.3229C18.3154 10.4228 18.3903 10.5655 18.4048 10.7201C18.4194 10.8748 18.3725 11.029 18.2744 11.1493Z" fill="#47CA5C"/>
</svg>
