<svg width="221" height="92" viewBox="0 0 221 92" fill="none" xmlns="http://www.w3.org/2000/svg">
<path d="M76.6036 36.8H84.7342L90.9549 75.44H84.9524L83.8611 67.7672V67.8776H77.0401L75.9487 75.44H70.3828L76.6036 36.8ZM83.1517 62.6336L80.4779 43.5345H80.3687L77.7495 62.6336H83.1517ZM97.2451 70.0304L108.377 42.32H97.7908V36.8H114.816V42.2096L103.684 69.92H114.816V75.44H97.2451V70.0304ZM127.274 42.32H120.999V36.8H139.552V42.32H133.277V75.44H127.274V42.32ZM146.823 36.8H155.718C158.81 36.8 161.066 37.536 162.484 39.008C163.903 40.4432 164.612 42.6696 164.612 45.6872V48.0608C164.612 52.072 163.303 54.6112 160.684 55.6784V55.7888C162.139 56.2304 163.157 57.132 163.739 58.4937C164.358 59.8552 164.667 61.6768 164.667 63.9584V70.748C164.667 71.852 164.703 72.7537 164.776 73.4529C164.849 74.1152 165.031 74.7776 165.322 75.44H159.21C158.992 74.8144 158.846 74.2257 158.774 73.6736C158.701 73.1217 158.665 72.128 158.665 70.6928V63.6272C158.665 61.8608 158.374 60.628 157.792 59.9288C157.246 59.2296 156.282 58.88 154.899 58.88H152.826V75.44H146.823V36.8ZM155.009 53.36C156.209 53.36 157.1 53.0472 157.682 52.4216C158.301 51.796 158.61 50.7472 158.61 49.2752V46.2944C158.61 44.8961 158.355 43.884 157.846 43.2584C157.373 42.6328 156.609 42.32 155.554 42.32H152.826V53.36H155.009ZM181.874 75.9921C178.927 75.9921 176.671 75.1456 175.107 73.4529C173.543 71.76 172.761 69.368 172.761 66.2768V45.9632C172.761 42.872 173.543 40.48 175.107 38.7872C176.671 37.0944 178.927 36.248 181.874 36.248C184.82 36.248 187.076 37.0944 188.64 38.7872C190.204 40.48 190.986 42.872 190.986 45.9632V66.2768C190.986 69.368 190.204 71.76 188.64 73.4529C187.076 75.1456 184.82 75.9921 181.874 75.9921ZM181.874 70.472C183.947 70.472 184.984 69.2024 184.984 66.6632V45.5768C184.984 43.0376 183.947 41.768 181.874 41.768C179.8 41.768 178.763 43.0376 178.763 45.5768V66.6632C178.763 69.2024 179.8 70.472 181.874 70.472ZM199.411 36.8H206.941L212.78 59.9288H212.889V36.8H218.237V75.44H212.071L204.868 47.2328H204.759V75.44H199.411V36.8Z" fill="white"/>
<path d="M76.6033 36.7999V35.5732H75.5723L75.4065 36.6027L76.6033 36.7999ZM84.7339 36.7999L85.9308 36.6027L85.765 35.5732H84.7339V36.7999ZM90.9547 75.4399V76.6666H92.3807L92.1515 75.2427L90.9547 75.4399ZM84.9522 75.4399L83.752 75.6147L83.9015 76.6666H84.9522V75.4399ZM83.8609 67.7671L85.061 67.5923L82.6482 67.7671H83.8609ZM83.8609 67.8775V69.1042H85.0735V67.8775H83.8609ZM77.0399 67.8775V66.6508H75.9913L75.84 67.7003L77.0399 67.8775ZM75.9485 75.4399V76.6666H76.9968L77.1484 75.6172L75.9485 75.4399ZM70.3826 75.4399L69.1857 75.2427L68.9565 76.6666H70.3826V75.4399ZM83.1515 62.6335V63.8602H84.5478L84.352 62.4615L83.1515 62.6335ZM80.4776 43.5343L81.6781 43.3623L81.5305 42.3076H80.4776V43.5343ZM80.3685 43.5343V42.3076H79.3123L79.1674 43.3656L80.3685 43.5343ZM77.7493 62.6335L76.5482 62.4648L76.3569 63.8602H77.7493V62.6335ZM76.6033 38.0266H84.7339V35.5732H76.6033V38.0266ZM83.5371 36.9971L89.7578 75.6371L92.1515 75.2427L85.9308 36.6027L83.5371 36.9971ZM90.9547 74.2132H84.9522V76.6666H90.9547V74.2132ZM86.1524 75.2651L85.061 67.5923L82.6607 67.9419L83.752 75.6147L86.1524 75.2651ZM82.6482 67.7671V67.8775H85.0735V67.7671H82.6482ZM83.8609 66.6508H77.0399V69.1042H83.8609V66.6508ZM75.84 67.7003L74.7486 75.2627L77.1484 75.6172L78.2398 68.0548L75.84 67.7003ZM75.9485 74.2132H70.3826V76.6666H75.9485V74.2132ZM71.5794 75.6371L77.8002 36.9971L75.4065 36.6027L69.1857 75.2427L71.5794 75.6371ZM84.352 62.4615L81.6781 43.3623L79.2769 43.7063L81.9507 62.8055L84.352 62.4615ZM80.4776 42.3076H80.3685V44.761H80.4776V42.3076ZM79.1674 43.3656L76.5482 62.4648L78.9503 62.8022L81.5696 43.703L79.1674 43.3656ZM77.7493 63.8602H83.1515V61.4068H77.7493V63.8602ZM97.2448 70.0303L96.1214 69.5685L96.0322 69.7905V70.0303H97.2448ZM108.377 42.3199L109.5 42.7817L110.178 41.0932H108.377V42.3199ZM97.7905 42.3199H96.5779V43.5466H97.7905V42.3199ZM97.7905 36.7999V35.5732H96.5779V36.7999H97.7905ZM114.816 36.7999H116.028V35.5732H114.816V36.7999ZM114.816 42.2095L115.939 42.6713L116.028 42.4493V42.2095H114.816ZM103.684 69.9199L102.56 69.4581L101.882 71.1466H103.684V69.9199ZM114.816 69.9199H116.028V68.6932H114.816V69.9199ZM114.816 75.4399V76.6666H116.028V75.4399H114.816ZM97.2448 75.4399H96.0322V76.6666H97.2448V75.4399ZM98.3683 70.4921L109.5 42.7817L107.253 41.8581L96.1214 69.5685L98.3683 70.4921ZM108.377 41.0932H97.7905V43.5466H108.377V41.0932ZM99.0031 42.3199V36.7999H96.5779V42.3199H99.0031ZM97.7905 38.0266H114.816V35.5732H97.7905V38.0266ZM113.603 36.7999V42.2095H116.028V36.7999H113.603ZM113.692 41.7477L102.56 69.4581L104.807 70.3817L115.939 42.6713L113.692 41.7477ZM103.684 71.1466H114.816V68.6932H103.684V71.1466ZM113.603 69.9199V75.4399H116.028V69.9199H113.603ZM114.816 74.2132H97.2448V76.6666H114.816V74.2132ZM98.4575 75.4399V70.0303H96.0322V75.4399H98.4575ZM127.274 42.3199H128.486V41.0932H127.274V42.3199ZM120.999 42.3199H119.786V43.5466H120.999V42.3199ZM120.999 36.7999V35.5732H119.786V36.7999H120.999ZM139.552 36.7999H140.764V35.5732H139.552V36.7999ZM139.552 42.3199V43.5466H140.764V42.3199H139.552ZM133.276 42.3199V41.0932H132.064V42.3199H133.276ZM133.276 75.4399V76.6666H134.489V75.4399H133.276ZM127.274 75.4399H126.061V76.6666H127.274V75.4399ZM127.274 41.0932H120.999V43.5466H127.274V41.0932ZM122.211 42.3199V36.7999H119.786V42.3199H122.211ZM120.999 38.0266H139.552V35.5732H120.999V38.0266ZM138.339 36.7999V42.3199H140.764V36.7999H138.339ZM139.552 41.0932H133.276V43.5466H139.552V41.0932ZM132.064 42.3199V75.4399H134.489V42.3199H132.064ZM133.276 74.2132H127.274V76.6666H133.276V74.2132ZM128.486 75.4399V42.3199H126.061V75.4399H128.486ZM146.823 36.7999V35.5732H145.61V36.7999H146.823ZM162.484 39.0079L161.616 39.8641L161.621 39.8699L161.627 39.8752L162.484 39.0079ZM160.683 55.6783L160.23 54.5406L159.471 54.85V55.6783H160.683ZM160.683 55.7887H159.471V56.7013L160.335 56.9636L160.683 55.7887ZM163.739 58.4935L162.626 58.9805L162.632 58.9931L162.637 59.0056L163.739 58.4935ZM164.776 73.4527L163.57 73.5812L163.57 73.5846L163.571 73.5883L164.776 73.4527ZM165.322 75.4399V76.6666H167.188L166.43 74.9416L165.322 75.4399ZM159.21 75.4399L158.067 75.8481L158.352 76.6666H159.21V75.4399ZM157.791 59.9287L156.84 60.6889L156.851 60.704L156.864 60.719L157.791 59.9287ZM152.826 58.8799V57.6532H151.613V58.8799H152.826ZM152.826 75.4399V76.6666H154.038V75.4399H152.826ZM146.823 75.4399H145.61V76.6666H146.823V75.4399ZM157.682 52.4215L156.825 51.5543L156.812 51.5671L156.799 51.5809L157.682 52.4215ZM157.846 43.2583L156.883 44.0035L156.896 44.021L156.91 44.0382L157.846 43.2583ZM152.826 42.3199V41.0932H151.613V42.3199H152.826ZM152.826 53.3599H151.613V54.5866H152.826V53.3599ZM146.823 38.0266H155.718V35.5732H146.823V38.0266ZM155.718 38.0266C158.651 38.0266 160.521 38.7279 161.616 39.8641L163.352 38.1517C161.61 36.3439 158.969 35.5732 155.718 35.5732V38.0266ZM161.627 39.8752C162.728 40.9893 163.4 42.8379 163.4 45.6871H165.825C165.825 42.5011 165.078 39.8969 163.342 38.1407L161.627 39.8752ZM163.4 45.6871V48.0607H165.825V45.6871H163.4ZM163.4 48.0607C163.4 49.9433 163.091 51.3675 162.555 52.4062C162.033 53.4176 161.271 54.1165 160.23 54.5406L161.137 56.816C162.715 56.173 163.917 55.0687 164.705 53.5408C165.479 52.0403 165.825 50.1893 165.825 48.0607H163.4ZM159.471 55.6783V55.7887H161.896V55.6783H159.471ZM160.335 56.9636C161.462 57.3055 162.192 57.9645 162.626 58.9805L164.852 58.0065C164.122 56.2993 162.815 55.1551 161.032 54.6139L160.335 56.9636ZM162.637 59.0056C163.155 60.1449 163.454 61.7699 163.454 63.9583H165.879C165.879 61.5835 165.561 59.5653 164.841 57.9814L162.637 59.0056ZM163.454 63.9583V70.7479H165.879V63.9583H163.454ZM163.454 70.7479C163.454 71.8737 163.491 72.8225 163.57 73.5812L165.982 73.3242C165.916 72.6845 165.879 71.8301 165.879 70.7479H163.454ZM163.571 73.5883C163.659 74.3862 163.876 75.1707 164.214 75.9382L166.43 74.9416C166.185 74.3844 166.039 73.844 165.981 73.3172L163.571 73.5883ZM165.322 74.2132H159.21V76.6666H165.322V74.2132ZM160.354 75.0317C160.158 74.4711 160.036 73.9655 159.975 73.5113L157.571 73.8357C157.657 74.4856 157.826 75.1575 158.067 75.8481L160.354 75.0317ZM159.975 73.5113C159.915 73.0501 159.877 72.1322 159.877 70.6927H157.452C157.452 72.1236 157.487 73.193 157.571 73.8357L159.975 73.5113ZM159.877 70.6927V63.6271H157.452V70.6927H159.877ZM159.877 63.6271C159.877 61.804 159.593 60.1881 158.719 59.1384L156.864 60.719C157.154 61.0677 157.452 61.9174 157.452 63.6271H159.877ZM158.743 59.1685C157.862 58.0393 156.439 57.6532 154.899 57.6532V60.1066C156.124 60.1066 156.63 60.4197 156.84 60.6889L158.743 59.1685ZM154.899 57.6532H152.826V60.1066H154.899V57.6532ZM151.613 58.8799V75.4399H154.038V58.8799H151.613ZM152.826 74.2132H146.823V76.6666H152.826V74.2132ZM148.036 75.4399V36.7999H145.61V75.4399H148.036ZM155.008 54.5866C156.402 54.5866 157.672 54.2216 158.565 53.2621L156.799 51.5809C156.528 51.8726 156.016 52.1332 155.008 52.1332V54.5866ZM158.54 53.2888C159.497 52.3206 159.822 50.8682 159.822 49.2751H157.397C157.397 50.626 157.105 51.2712 156.825 51.5543L158.54 53.2888ZM159.822 49.2751V46.2943H157.397V49.2751H159.822ZM159.822 46.2943C159.822 44.7984 159.56 43.4343 158.782 42.4785L156.91 44.0382C157.15 44.3335 157.397 44.9934 157.397 46.2943H159.822ZM158.809 42.5131C158.032 41.4845 156.843 41.0932 155.554 41.0932V43.5466C156.376 43.5466 156.714 43.7809 156.883 44.0035L158.809 42.5131ZM155.554 41.0932H152.826V43.5466H155.554V41.0932ZM151.613 42.3199V53.3599H154.038V42.3199H151.613ZM152.826 54.5866H155.008V52.1332H152.826V54.5866ZM181.873 74.7652C179.161 74.7652 177.267 73.9934 175.993 72.6149L174.221 74.2905C176.076 76.2977 178.693 77.2186 181.873 77.2186V74.7652ZM175.993 72.6149C174.701 71.2168 173.973 69.1631 173.973 66.2767H171.548C171.548 69.5728 172.385 72.303 174.221 74.2905L175.993 72.6149ZM173.973 66.2767V45.9631H171.548V66.2767H173.973ZM173.973 45.9631C173.973 43.0768 174.701 41.023 175.993 39.6249L174.221 37.9493C172.385 39.9368 171.548 42.6671 171.548 45.9631H173.973ZM175.993 39.6249C177.267 38.2465 179.161 37.4746 181.873 37.4746V35.0212C178.693 35.0212 176.076 35.9422 174.221 37.9493L175.993 39.6249ZM181.873 37.4746C184.586 37.4746 186.48 38.2465 187.754 39.6249L189.526 37.9493C187.671 35.9422 185.054 35.0212 181.873 35.0212V37.4746ZM187.754 39.6249C189.046 41.023 189.773 43.0768 189.773 45.9631H192.199C192.199 42.6671 191.362 39.9368 189.526 37.9493L187.754 39.6249ZM189.773 45.9631V66.2767H192.199V45.9631H189.773ZM189.773 66.2767C189.773 69.1631 189.046 71.2168 187.754 72.6149L189.526 74.2905C191.362 72.303 192.199 69.5728 192.199 66.2767H189.773ZM187.754 72.6149C186.48 73.9934 184.586 74.7652 181.873 74.7652V77.2186C185.054 77.2186 187.671 76.2977 189.526 74.2905L187.754 72.6149ZM181.873 71.6986C183.164 71.6986 184.332 71.2919 185.141 70.3011C185.914 69.3547 186.196 68.0707 186.196 66.6631H183.771C183.771 67.7947 183.535 68.4151 183.271 68.7383C183.044 69.0171 182.656 69.2452 181.873 69.2452V71.6986ZM186.196 66.6631V45.5767H183.771V66.6631H186.196ZM186.196 45.5767C186.196 44.1691 185.914 42.8851 185.141 41.9387C184.332 40.9479 183.164 40.5412 181.873 40.5412V42.9946C182.656 42.9946 183.044 43.2227 183.271 43.5015C183.535 43.8247 183.771 44.4451 183.771 45.5767H186.196ZM181.873 40.5412C180.582 40.5412 179.415 40.9479 178.606 41.9387C177.833 42.8851 177.55 44.1691 177.55 45.5767H179.976C179.976 44.4451 180.211 43.8247 180.475 43.5015C180.703 43.2227 181.091 42.9946 181.873 42.9946V40.5412ZM177.55 45.5767V66.6631H179.976V45.5767H177.55ZM177.55 66.6631C177.55 68.0707 177.833 69.3547 178.606 70.3011C179.415 71.2919 180.582 71.6986 181.873 71.6986V69.2452C181.091 69.2452 180.703 69.0171 180.475 68.7383C180.211 68.4151 179.976 67.7947 179.976 66.6631H177.55ZM199.411 36.7999V35.5732H198.198V36.7999H199.411ZM206.941 36.7999L208.116 36.4963L207.883 35.5732H206.941V36.7999ZM212.78 59.9287L211.605 60.2323L211.838 61.1554H212.78V59.9287ZM212.889 59.9287V61.1554H214.102V59.9287H212.889ZM212.889 36.7999V35.5732H211.676V36.7999H212.889ZM218.237 36.7999H219.449V35.5732H218.237V36.7999ZM218.237 75.4399V76.6666H219.449V75.4399H218.237ZM212.071 75.4399L210.896 75.7466L211.131 76.6666H212.071V75.4399ZM204.868 47.2327L206.042 46.926L205.807 46.006H204.868V47.2327ZM204.758 47.2327V46.006H203.546V47.2327H204.758ZM204.758 75.4399V76.6666H205.971V75.4399H204.758ZM199.411 75.4399H198.198V76.6666H199.411V75.4399ZM199.411 38.0266H206.941V35.5732H199.411V38.0266ZM205.766 37.1035L211.605 60.2323L213.955 59.6251L208.116 36.4963L205.766 37.1035ZM212.78 61.1554H212.889V58.702H212.78V61.1554ZM214.102 59.9287V36.7999H211.676V59.9287H214.102ZM212.889 38.0266H218.237V35.5732H212.889V38.0266ZM217.024 36.7999V75.4399H219.449V36.7999H217.024ZM218.237 74.2132H212.071V76.6666H218.237V74.2132ZM213.245 75.1332L206.042 46.926L203.693 47.5394L210.896 75.7466L213.245 75.1332ZM204.868 46.006H204.758V48.4594H204.868V46.006ZM203.546 47.2327V75.4399H205.971V47.2327H203.546ZM204.758 74.2132H199.411V76.6666H204.758V74.2132ZM200.623 75.4399V36.7999H198.198V75.4399H200.623Z" fill="white"/>
<path d="M38.6544 52.1334V39.8667H65.1804V67.4667C61.391 70.5334 50.7806 76.6667 38.6544 76.6667C-12.1241 76.6667 -13.6399 2.30005 38.6544 2.30005V31.4334C6.82307 34.5 15.9177 72.0667 38.6544 72.0667C54.57 72.0667 60.6331 59.0334 53.8121 52.1334C48.3553 46.6134 41.4334 49.8334 38.6544 52.1334Z" fill="white"/>
<path d="M53.8122 12.2667C40.1703 17.6333 45.4755 32.9667 54.5701 36.8C53.5597 32.2 53.3575 22.3867 60.6332 19.9333C69.7279 16.8667 81.0962 12.2667 80.3383 0C73.5173 7.66667 67.4542 6.9 53.8122 12.2667Z" fill="white"/>
</svg>
